<?xml version="1.0" standalone="no"?>
<!DOCTYPE svg PUBLIC "-//W3C//DTD SVG 1.1//EN" "http://www.w3.org/Graphics/SVG/1.1/DTD/svg11.dtd" >
<svg xmlns="http://www.w3.org/2000/svg">
<metadata>Generated by IcoMoon</metadata>
<defs>
<font id="PosTracker_21022017" horiz-adv-x="1024">
<font-face units-per-em="1024" ascent="960" descent="-64" />
<missing-glyph horiz-adv-x="1024" />
<glyph unicode="&#x20;" horiz-adv-x="512" d="" />
<glyph unicode="&#xe600;" glyph-name="activation" d="M355.178 132.207c10.025-11.457 25.779-18.618 41.533-18.618 14.322 0 27.211 5.729 37.236 14.322l296.459 263.519c15.754 14.322 25.779 35.804 25.779 57.287 0 42.965-34.372 77.337-77.337 77.337h-154.674l143.217 161.835c18.618 21.483 18.618 54.422 0 75.905-10.025 11.457-25.779 18.618-41.533 18.618-14.322 0-27.211-5.729-37.236-14.322l-295.027-263.519c-15.754-14.322-25.779-35.804-25.779-57.287 0-42.965 34.372-77.337 77.337-77.337h154.674l-144.649-161.835c-18.618-21.483-18.618-54.422 0-75.905zM388.117 179.469l176.157 197.639c5.729 5.729 7.161 15.754 2.864 22.915-2.864 7.161-11.457 12.89-20.050 12.89h-201.936c-18.618 0-34.372 15.754-34.372 34.372 0 10.025 4.297 18.618 11.457 25.779l295.027 263.519c2.864 2.864 7.161 2.864 8.593 2.864 2.864 0 7.161 0 10.025-4.297 4.297-5.729 4.297-12.89 0-18.618l-176.157-196.207c-5.729-5.729-7.161-15.754-4.297-22.915s11.457-12.89 20.050-12.89h203.368c18.618 0 34.372-15.754 34.372-34.372 0-10.025-4.297-18.618-11.457-25.779l-295.027-263.519c-2.864-2.864-7.161-2.864-8.593-2.864-2.864 0-7.161 0-10.025 4.297-4.297 4.297-4.297 11.457 0 17.186z" />
<glyph unicode="&#xe601;" glyph-name="alert" d="M734.702 152.257c37.236 0 70.176 18.618 88.794 51.558 18.618 31.508 18.618 70.176 0 103.116l-223.418 386.685c-18.618 31.508-51.558 51.558-88.794 51.558s-70.176-18.618-88.794-51.558l-223.418-386.685c-18.618-31.508-18.618-70.176 0-103.116 18.618-31.508 51.558-51.558 88.794-51.558h446.836zM236.308 225.298c-11.457 18.618-11.457 41.533 0 60.151l223.418 386.685c11.457 18.618 30.076 30.076 51.558 30.076s41.533-11.457 51.558-30.076l223.418-386.685c11.457-18.618 11.457-41.533 0-60.151s-30.076-30.076-51.558-30.076h-445.404c-22.915 0-41.533 11.457-52.99 30.076zM511.284 359.922c8.593 0 15.754 7.161 15.754 15.754l5.729 177.589c0 0 0 1.432 0 1.432 0 11.457-10.025 21.483-21.483 21.483s-21.483-10.025-21.483-21.483l5.729-177.589c0-10.025 7.161-17.186 15.754-17.186zM548.52 288.313c0-19.774-16.030-35.804-35.804-35.804s-35.804 16.030-35.804 35.804c0 19.774 16.030 35.804 35.804 35.804s35.804-16.030 35.804-35.804z" />
<glyph unicode="&#xe602;" glyph-name="arrow-down" d="M660.229 560.425l-148.945-148.945-147.513 148.945c-14.322 14.322-37.236 14.322-50.126 0s-14.322-37.236 0-50.126l173.292-174.724c7.161-7.161 15.754-10.025 25.779-10.025s18.618 2.864 25.779 10.025l173.292 173.292c14.322 14.322 14.322 37.236 0 50.126s-37.236 15.754-51.558 1.432z" />
<glyph unicode="&#xe603;" glyph-name="arrow-left" d="M624.425 646.355c-14.322 14.322-37.236 14.322-50.126 0l-174.724-173.292c-14.322-14.322-14.322-37.236 0-50.126l173.292-173.292c7.161-7.161 15.754-10.025 25.779-10.025s18.618 2.864 25.779 10.025c14.322 14.322 14.322 37.236 0 50.126l-148.945 148.945 147.513 147.513c14.322 14.322 14.322 37.236 1.432 50.126z" />
<glyph unicode="&#xe604;" glyph-name="arrow-right" d="M449.701 646.355c-14.322 14.322-37.236 14.322-50.126 0s-14.322-37.236 0-50.126l147.513-147.513-147.513-148.945c-14.322-14.322-14.322-37.236 0-50.126 7.161-7.161 15.754-10.025 25.779-10.025s18.618 2.864 25.779 10.025l173.292 173.292c14.322 14.322 14.322 37.236 0 50.126l-174.724 173.292z" />
<glyph unicode="&#xe605;" glyph-name="arrow-up" d="M537.063 560.425c-14.322 14.322-37.236 14.322-50.126 0l-173.292-173.292c-14.322-14.322-14.322-37.236 0-50.126s37.236-14.322 50.126 0l147.513 147.513 147.513-147.513c7.161-7.161 15.754-10.025 25.779-10.025s18.618 2.864 25.779 10.025c14.322 14.322 14.322 37.236 0 50.126l-173.292 173.292z" />
<glyph unicode="&#xe606;" glyph-name="chart" d="M773.371 438.691h-263.519v270.68c0 11.457-8.593 21.483-21.483 21.483h-1.432c-1.432 0-4.297 0-5.729 0-173.292 0-315.077-141.785-315.077-315.077s141.785-315.077 315.077-315.077 315.077 141.785 315.077 315.077c-1.432 12.89-11.457 22.915-22.915 22.915zM479.776 145.097c-150.378 0-272.112 121.734-272.112 272.112 0 144.649 114.573 263.519 257.79 270.68v-270.68c0-11.457 10.025-21.483 21.483-21.483h263.519c-10.025-140.352-127.463-250.629-270.68-250.629zM303.62 417.208c0 11.457-10.025 21.483-21.483 21.483s-21.483-10.025-21.483-21.483c0-121.734 98.82-220.554 220.554-220.554 11.457 0 21.483 10.025 21.483 21.483s-10.025 21.483-21.483 21.483c-98.82 0-177.589 80.201-177.589 177.589zM572.867 793.869v-292.162h285.001c0 158.971-127.463 287.866-285.001 292.162z" />
<glyph unicode="&#xe607;" glyph-name="check" d="M653.069 586.204l-201.936-200.503-80.201 80.201c-14.322 14.322-37.236 14.322-50.126 0s-14.322-37.236 0-50.126l105.98-105.98c7.161-7.161 15.754-10.025 25.779-10.025 8.593 0 18.618 2.864 25.779 10.025l226.283 226.283c14.322 14.322 14.322 37.236 0 50.126s-38.669 14.322-51.558 0z" />
<glyph unicode="&#xe608;" glyph-name="close" d="M663.094 599.094c-14.322 14.322-37.236 14.322-50.126 0l-100.252-100.252-100.252 100.252c-14.322 14.322-37.236 14.322-50.126 0s-14.322-37.236 0-50.126l100.252-100.252-100.252-100.252c-14.322-14.322-14.322-37.236 0-50.126 7.161-7.161 15.754-10.025 25.779-10.025s18.618 2.864 25.779 10.025l100.252 100.252 100.252-100.252c7.161-7.161 15.754-10.025 25.779-10.025s18.618 2.864 25.779 10.025c14.322 14.322 14.322 37.236 0 50.126l-100.252 100.252 100.252 100.252c10.025 12.89 10.025 35.804-2.864 50.126z" />
<glyph unicode="&#xe609;" glyph-name="coment" d="M753.32 719.396h-482.641c-57.287 0-103.116-45.829-103.116-103.116v-247.765c0-57.287 45.829-103.116 103.116-103.116h227.715l88.794-83.066c4.297-4.297 10.025-5.729 14.322-5.729s10.025 1.432 14.322 5.729l88.794 83.066h50.126c57.287 0 103.116 45.829 103.116 103.116v247.765c-1.432 57.287-47.262 103.116-104.548 103.116zM813.471 368.515c0-32.94-27.211-60.151-60.151-60.151h-57.287c-5.729 0-11.457-1.432-14.322-5.729l-80.201-74.473-80.201 74.473c-4.297 4.297-8.593 5.729-14.322 5.729h-236.308c-32.94 0-60.151 27.211-60.151 60.151v247.765c0 32.94 27.211 60.151 60.151 60.151h484.073c32.94 0 60.151-27.211 60.151-60.151v-247.765zM716.084 576.179h-385.253c-11.457 0-21.483-10.025-21.483-21.483s10.025-21.483 21.483-21.483h385.253c11.457 0 21.483 10.025 21.483 21.483s-8.593 21.483-21.483 21.483zM716.084 453.013h-385.253c-11.457 0-21.483-10.025-21.483-21.483s10.025-21.483 21.483-21.483h385.253c11.457 0 21.483 10.025 21.483 21.483s-8.593 21.483-21.483 21.483z" />
<glyph unicode="&#xe60a;" glyph-name="download" d="M511.284 740.878c-11.457 0-21.483-10.025-21.483-21.483v-376.66l-137.488 137.488c-8.593 8.593-21.483 8.593-30.076 0s-8.593-21.483 0-30.076l173.292-173.292c1.432-1.432 4.297-4.297 7.161-4.297 0 0 0 0 0 0 2.864-1.432 5.729-1.432 7.161-1.432s5.729 0 7.161 1.432c0 0 0 0 0 0 2.864 1.432 4.297 2.864 7.161 4.297l173.292 173.292c8.593 8.593 8.593 21.483 0 30.076s-21.483 8.593-30.076 0l-137.488-137.488v376.66c2.864 11.457-5.729 21.483-18.618 21.483zM832.090 198.087h-640.179c-11.457 0-21.483-10.025-21.483-21.483s10.025-21.483 21.483-21.483h638.747c11.457 0 21.483 10.025 21.483 21.483s-8.593 21.483-20.050 21.483z" />
<glyph unicode="&#xe60b;" glyph-name="edit" d="M733.27 758.064c-8.593 8.593-22.915 8.593-30.076 0l-401.007-401.007c0 0 0 0 0 0-1.432-1.432-2.864-2.864-2.864-4.297l-100.252-189.046c-4.297-8.593-2.864-18.618 4.297-25.779 4.297-4.297 10.025-5.729 15.754-5.729 2.864 0 7.161 1.432 10.025 2.864l189.046 100.252c1.432 1.432 2.864 2.864 4.297 2.864 0 0 0 0 0 0l401.007 401.007c4.297 4.297 5.729 10.025 5.729 15.754s-2.864 11.457-5.729 15.754l-90.227 87.362zM269.248 205.248l54.422 101.684 47.262-47.262-101.684-54.422zM406.736 284.017l-58.719 58.719 370.931 370.931 58.719-58.719-370.931-370.931z" />
<glyph unicode="&#xe60c;" glyph-name="excel" d="M803.446 558.993c-1.432 2.864-2.864 4.297-4.297 7.161 0 0 0 0 0 0l-210.529 219.122c0 0 0 0 0 0s-1.432 1.432-1.432 1.432c0 0-1.432 1.432-1.432 1.432-1.432 0-1.432 1.432-2.864 1.432 0 0 0 0-1.432 0-2.864 1.432-5.729 1.432-8.593 1.432h-252.062c-57.287 0-103.116-45.829-103.116-103.116v-481.208c0-57.287 45.829-103.116 103.116-103.116h382.389c57.287 0 103.116 45.829 103.116 103.116v343.72c0 2.864-1.432 5.729-2.864 8.593 1.432-1.432 0-1.432 0 0zM733.27 571.883h-80.201c-32.94 0-60.151 27.211-60.151 60.151v85.93l140.352-146.081zM763.345 206.68c0-32.94-27.211-60.151-60.151-60.151h-382.389c-32.94 0-60.151 27.211-60.151 60.151v482.641c0 32.94 27.211 60.151 60.151 60.151h230.579v-117.438c0-57.287 45.829-103.116 103.116-103.116h108.845v-322.238zM549.952 371.379l60.151 91.659c8.593 12.89 5.729 20.050-11.457 20.050h-45.829c-17.186 0-21.483-1.432-28.643-14.322l-24.347-42.965-24.347 42.965c-7.161 12.89-12.89 14.322-31.508 14.322h-42.965c-20.050 0-21.483-8.593-12.89-20.050l61.583-91.659-65.88-98.82c-8.593-12.89-7.161-20.050 12.89-20.050h44.397c17.186 0 22.915 1.432 30.076 14.322l27.211 50.126 28.643-50.126c7.161-14.322 11.457-14.322 31.508-14.322h42.965c20.050 0 21.483 5.729 12.89 20.050l-64.448 98.82z" />
<glyph unicode="&#xe60d;" glyph-name="filter" d="M837.818 589.069c0 11.457-10.025 21.483-21.483 21.483h-608.671c-11.457 0-21.483-10.025-21.483-21.483s10.025-21.483 21.483-21.483h608.671c11.457 0 21.483 8.593 21.483 21.483zM332.263 427.234h360.906c11.457 0 21.483 10.025 21.483 21.483s-10.025 21.483-21.483 21.483h-360.906c-11.457 0-21.483-10.025-21.483-21.483s8.593-21.483 21.483-21.483zM416.761 329.846c-11.457 0-21.483-10.025-21.483-21.483s10.025-21.483 21.483-21.483h189.046c11.457 0 21.483 10.025 21.483 21.483s-8.593 21.483-21.483 21.483h-189.046z" />
<glyph unicode="&#xe60f;" glyph-name="form" d="M320.806 104.996h382.389c57.287 0 103.116 45.829 103.116 103.116v342.288c0 2.864 0 5.729-1.432 7.161 0 0 0 0 0 0-1.432 2.864-2.864 4.297-4.297 7.161 0 0 0 0 0 0l-211.961 220.554c0 0 0 0 0 0s-1.432 1.432-1.432 1.432c0 0-1.432 0-1.432 1.432-1.432 0-2.864 1.432-2.864 1.432s0 0 0 0c-2.864 1.432-5.729 1.432-8.593 1.432h-253.494c-57.287 0-103.116-45.829-103.116-103.116v-481.208c0-55.855 45.829-101.684 103.116-101.684zM733.27 571.883h-80.201c-32.94 0-60.151 27.211-60.151 60.151v85.93l140.352-146.081zM260.655 689.32c0 32.94 27.211 60.151 60.151 60.151h230.579v-117.438c0-57.287 45.829-103.116 103.116-103.116h108.845v-320.806c0-32.94-27.211-60.151-60.151-60.151h-382.389c-32.94 0-60.151 27.211-60.151 60.151v481.208zM345.152 528.917h110.277c11.457 0 21.483 10.025 21.483 21.483s-10.025 21.483-21.483 21.483h-110.277c-11.457 0-21.483-10.025-21.483-21.483s8.593-21.483 21.483-21.483zM345.152 389.997h333.695c11.457 0 21.483 10.025 21.483 21.483s-10.025 21.483-21.483 21.483h-333.695c-11.457 0-21.483-10.025-21.483-21.483s8.593-21.483 21.483-21.483zM345.152 251.077h333.695c11.457 0 21.483 10.025 21.483 21.483s-10.025 21.483-21.483 21.483h-333.695c-11.457 0-21.483-10.025-21.483-21.483s8.593-21.483 21.483-21.483z" />
<glyph unicode="&#xe610;" glyph-name="layout" d="M824.929 238.187v419.625c0 57.287-45.829 103.116-103.116 103.116h-419.625c-57.287 0-103.116-45.829-103.116-103.116v-419.625c0-57.287 45.829-103.116 103.116-103.116h419.625c57.287 0 103.116 45.829 103.116 103.116zM781.964 657.813v-98.82h-300.755v158.971h240.604c32.94 0 60.151-27.211 60.151-60.151zM242.036 657.813c0 32.94 27.211 60.151 60.151 60.151h136.056v-309.348h-196.207v249.197zM242.036 238.187v128.895h196.207v-187.614h-136.056c-32.94-1.432-60.151 25.779-60.151 58.719zM481.208 388.565v128.895h300.755v-277.841c0-32.94-27.211-60.151-60.151-60.151h-240.604v209.097z" />
<glyph unicode="&#xe611;" glyph-name="local" d="M511.284 788.14c-153.242 0-279.273-124.599-279.273-279.273 0-210.529 256.358-389.55 267.815-396.71 4.297-2.864 8.593-4.297 12.89-4.297s8.593 1.432 12.89 4.297c11.457 7.161 267.815 186.182 267.815 396.71-2.864 154.674-127.463 279.273-282.137 279.273zM511.284 156.554c-50.126 37.236-236.308 189.046-236.308 352.313 0 130.327 105.98 236.308 236.308 236.308s236.308-105.98 236.308-236.308c0-163.267-186.182-315.077-236.308-352.313zM615.832 546.103c0 57.287-45.829 103.116-103.116 103.116s-103.116-45.829-103.116-103.116 45.829-103.116 103.116-103.116 103.116 47.262 103.116 103.116zM511.284 485.952c-32.94 0-60.151 27.211-60.151 60.151s27.211 60.151 60.151 60.151 60.151-27.211 60.151-60.151-25.779-60.151-60.151-60.151zM670.255 454.445c-11.457 4.297-22.915-2.864-27.211-12.89-20.050-58.719-68.744-110.277-105.98-143.217-8.593-7.161-10.025-21.483-1.432-30.076 4.297-4.297 10.025-7.161 15.754-7.161s10.025 1.432 14.322 5.729c41.533 37.236 95.955 94.523 118.87 161.835 2.864 8.593-2.864 21.483-14.322 25.779z" />
<glyph unicode="&#xe612;" glyph-name="lock" d="M668.822 579.043v65.88c0 85.93-70.176 156.106-156.106 156.106s-157.538-70.176-157.538-156.106v-65.88c-48.694-8.593-85.93-50.126-85.93-101.684v-279.273c0-57.287 45.829-103.116 103.116-103.116h279.273c57.287 0 103.116 45.829 103.116 103.116v279.273c0 50.126-37.236 93.091-85.93 101.684zM398.143 644.923c0 63.015 51.558 113.141 113.141 113.141s113.141-51.558 113.141-113.141v-64.448h-226.283v64.448zM711.787 198.087c0-32.94-27.211-60.151-60.151-60.151h-279.273c-32.94 0-60.151 27.211-60.151 60.151v279.273c0 32.94 27.211 60.151 60.151 60.151h279.273c32.94 0 60.151-27.211 60.151-60.151v-279.273zM504.123 404.319c-20.050 0-35.804-15.754-35.804-35.804v-71.608c0-20.050 15.754-35.804 35.804-35.804s35.804 15.754 35.804 35.804v71.608c0 20.050-17.186 35.804-35.804 35.804z" />
<glyph unicode="&#xe613;" glyph-name="message" d="M270.68 176.604h484.073c57.287 0 103.116 45.829 103.116 103.116v337.992c0 57.287-45.829 103.116-103.116 103.116h-484.073c-57.287 0-103.116-45.829-103.116-103.116v-337.992c0-57.287 45.829-103.116 103.116-103.116zM813.471 278.288c0-32.94-27.211-60.151-60.151-60.151h-482.641c-32.94 0-60.151 27.211-60.151 60.151v339.424c0 7.161 1.432 12.89 2.864 18.618l199.071-189.046c28.643-27.211 63.015-41.533 97.387-41.533 35.804 0 71.608 14.322 100.252 44.397l194.775 196.207c5.729-8.593 8.593-18.618 8.593-30.076v-337.992zM270.68 677.863h484.073c5.729 0 11.457-1.432 17.186-2.864l-193.343-194.775c-40.101-41.533-95.955-41.533-137.488-2.864l-200.503 191.91c8.593 4.297 18.618 8.593 30.076 8.593zM743.295 421.505c-11.457 0-21.483-10.025-21.483-21.483v-74.473c0-7.161-5.729-12.89-12.89-12.89h-85.93c-11.457 0-21.483-10.025-21.483-21.483s10.025-21.483 21.483-21.483h85.93c30.076 0 55.855 24.347 55.855 55.855v74.473c0 11.457-10.025 21.483-21.483 21.483z" />
<glyph unicode="&#xe614;" glyph-name="pdf" d="M396.71 206.68c21.483-11.457 55.855 17.186 111.709 113.141 52.99 18.618 121.734 32.94 181.885 38.669 60.151-31.508 127.463-42.965 131.759-21.483-15.754-8.593-60.151 2.864-104.548 24.347 61.583 4.297 107.413-1.432 105.98-20.050 14.322 30.076-45.829 40.101-126.031 30.076-14.322 8.593-28.643 17.186-41.533 27.211-11.457 10.025-22.915 22.915-32.94 38.669l-17.186 30.076c-7.161 14.322-12.89 28.643-17.186 42.965 7.161 35.804 7.161 65.88 7.161 98.82-2.864-14.322-5.729-40.101-14.322-75.905-11.457 41.533-12.89 80.201-7.161 100.252 1.432 4.297 5.729 10.025 7.161 10.025 5.729-2.864 12.89-10.025 14.322-27.211 5.729 28.643-8.593 27.211-12.89 27.211h-8.593c-5.729 0-10.025-2.864-11.457-11.457-7.161-27.211-4.297-75.905 11.457-126.031-4.297-12.89-7.161-25.779-12.89-40.101 0 0-24.347-58.719-30.076-70.176-1.432-2.864-2.864-5.729-4.297-10.025-57.287-117.438-101.684-176.157-133.192-177.589-2.864 14.322 27.211 58.719 70.176 90.227-71.608-37.236-85.93-80.201-80.201-88.794l12.89-2.864zM539.927 377.108c2.864 7.161 10.025 18.618 10.025 18.618l24.347 60.151c2.864 10.025 5.729 18.618 8.593 28.643 2.864-5.729 4.297-12.89 7.161-18.618 4.297-8.593 22.915-41.533 22.915-41.533 10.025-12.89 20.050-25.779 31.508-35.804 8.593-7.161 18.618-14.322 28.643-21.483-52.99-8.593-111.709-24.347-164.699-47.262 10.025 17.186 20.050 35.804 31.508 57.287zM302.187 206.68c0-57.287 45.829-103.116 103.116-103.116h382.389c57.287 0 103.116 45.829 103.116 103.116v343.72c0 2.864 0 5.729-1.432 7.161 0 0 0 0 0 0-1.432 2.864-2.864 4.297-4.297 7.161 0 0 0 0 0 0l-213.393 220.554c0 0 0 0 0 0s-1.432 1.432-1.432 1.432c0 0-1.432 1.432-1.432 1.432-1.432 0-1.432 1.432-2.864 1.432 0 0 0 0-1.432 0-2.864 1.432-5.729 1.432-8.593 1.432h-250.629c-57.287 0-103.116-45.829-103.116-103.116v-7.161h-136.056c-18.618 0-32.94-14.322-32.94-32.94v-98.82c0-18.618 14.322-32.94 32.94-32.94h136.056v-309.348zM817.768 571.883h-80.201c-32.94 0-60.151 27.211-60.151 60.151v85.93l140.352-146.081zM246.333 583.34h-14.322v-20.050c0-2.864-1.432-4.297-4.297-4.297h-12.89c-4.297 0-4.297 1.432-4.297 4.297v71.608c0 2.864 1.432 4.297 4.297 4.297h31.508c18.618 0 30.076-10.025 30.076-28.643-1.432-17.186-12.89-27.211-30.076-27.211zM287.866 557.561c-4.297 0-4.297 1.432-4.297 4.297v71.608c0 2.864 1.432 4.297 4.297 4.297h28.643c22.915 0 35.804-12.89 35.804-32.94v-17.186c0-20.050-12.89-32.94-35.804-32.94h-28.643zM453.997 517.46c18.618 0 32.94 14.322 32.94 32.94v98.82c0 18.618-14.322 32.94-32.94 32.94h-108.845v7.161c0 32.94 27.211 60.151 60.151 60.151h230.579v-117.438c0-57.287 45.829-103.116 103.116-103.116h108.845v-320.806c0-32.94-27.211-60.151-60.151-60.151h-382.389c-32.94 0-60.151 27.211-60.151 60.151v309.348h108.845zM408.168 606.255c4.297 0 4.297-1.432 4.297-4.297v-10.025c0-4.297-1.432-4.297-4.297-4.297h-24.347v-22.915c0-2.864-1.432-4.297-4.297-4.297h-12.89c-4.297 0-4.297 1.432-4.297 4.297v71.608c0 2.864 1.432 4.297 4.297 4.297h48.694c4.297 0 4.297-1.432 4.297-4.297v-10.025c0-4.297-1.432-4.297-4.297-4.297h-30.076v-12.89h22.915zM243.469 619.144h-11.457v-17.186h11.457c5.729 0 8.593 2.864 8.593 8.593s-4.297 8.593-8.593 8.593zM329.399 590.501v17.186c0 8.593-4.297 12.89-12.89 12.89h-10.025v-41.533h8.593c10.025 0 14.322 4.297 14.322 11.457z" />
<glyph unicode="&#xe615;" glyph-name="picture" d="M708.923 789.572h-395.278c-78.769 0-143.217-64.448-143.217-143.217v-395.278c0-78.769 64.448-143.217 143.217-143.217h395.278c78.769 0 143.217 64.448 143.217 143.217v395.278c1.432 78.769-63.015 143.217-143.217 143.217zM213.393 646.355c0 55.855 44.397 100.252 100.252 100.252h395.278c55.855 0 100.252-44.397 100.252-100.252v-315.077l-105.98 117.438c-4.297 4.297-10.025 7.161-15.754 7.161s-11.457-1.432-15.754-5.729l-113.141-113.141c0 0-1.432-1.432-1.432-1.432l-137.488 184.75c-4.297 5.729-10.025 8.593-15.754 8.593s-12.89-2.864-17.186-7.161l-173.292-197.639v322.238zM313.645 149.393c-55.855 0-100.252 44.397-100.252 100.252v8.593l189.046 211.961 240.604-320.806h-329.399zM810.607 251.077c0-55.855-44.397-100.252-100.252-100.252h-12.89l-114.573 150.378c2.864 1.432 4.297 2.864 7.161 4.297l97.387 95.955 123.166-136.056v-14.322zM575.731 483.088c51.558 0 94.523 41.533 94.523 94.523 0 51.558-41.533 94.523-94.523 94.523-51.558 0-94.523-41.533-94.523-94.523 0-51.558 42.965-94.523 94.523-94.523zM575.731 627.737c28.643 0 51.558-22.915 51.558-51.558s-22.915-51.558-51.558-51.558c-28.643 0-51.558 22.915-51.558 51.558s22.915 51.558 51.558 51.558z" />
<glyph unicode="&#xe616;" glyph-name="plus" d="M688.873 484.52h-141.785v141.785c0 20.050-15.754 35.804-35.804 35.804s-35.804-15.754-35.804-35.804v-141.785h-141.785c-20.050 0-35.804-15.754-35.804-35.804s15.754-35.804 35.804-35.804h141.785v-141.785c0-20.050 15.754-35.804 35.804-35.804s35.804 15.754 35.804 35.804v141.785h141.785c20.050 0 35.804 15.754 35.804 35.804s-15.754 35.804-35.804 35.804z" />
<glyph unicode="&#xe617;" glyph-name="presence" d="M282.137 127.91c11.457 0 21.483 10.025 21.483 21.483v250.629c25.779-14.322 54.422-21.483 84.498-21.483 21.483 0 44.397 4.297 70.176 11.457s50.126 17.186 74.473 28.643c41.533 17.186 81.634 34.372 120.302 34.372 27.211 0 51.558-8.593 74.473-28.643 5.729-5.729 15.754-5.729 22.915-2.864s12.89 11.457 12.89 20.050v272.112c0 5.729-2.864 12.89-7.161 17.186-31.508 25.779-64.448 37.236-101.684 37.236-45.829 0-91.659-18.618-136.056-37.236-42.965-17.186-85.93-35.804-128.895-35.804-32.94 0-63.015 11.457-91.659 34.372 0 0 0 0 0 0-1.432 1.432-2.864 1.432-4.297 2.864 0 0 0 0 0 0-1.432 0-2.864 1.432-5.729 1.432 0 0-1.432 0-1.432 0s-1.432 0-1.432 0-1.432 0-2.864 0c0 0-1.432 0-1.432 0-1.432 0-2.864-1.432-5.729-1.432 0 0 0 0 0 0s0 0 0 0c-1.432-1.432-2.864-1.432-4.297-2.864 0 0 0 0-1.432-1.432s-2.864-2.864-2.864-4.297c0 0 0 0 0-1.432-1.432-1.432-1.432-2.864-1.432-4.297 0 0 0-1.432 0-1.432 0-1.432-1.432-2.864-1.432-5.729v-564.274c-2.864-8.593 7.161-18.618 18.618-18.618zM303.62 673.566c25.779-14.322 54.422-21.483 84.498-21.483 50.126 0 98.82 20.050 144.649 38.669 41.533 17.186 81.634 34.372 120.302 34.372 24.347 0 45.829-7.161 67.312-21.483v-223.418c-21.483 10.025-42.965 14.322-67.312 14.322-45.829 0-91.659-18.618-136.056-37.236-22.915-10.025-47.262-20.050-70.176-25.779-21.483-5.729-40.101-8.593-57.287-8.593-30.076 0-57.287 10.025-84.498 28.643v221.986zM363.771 609.119c-11.457 0-21.483-10.025-21.483-21.483v-87.362c0-11.457 10.025-21.483 21.483-21.483s21.483 10.025 21.483 21.483v87.362c0 11.457-10.025 21.483-21.483 21.483z" />
<glyph unicode="&#xe618;" glyph-name="price" d="M727.541 792.436c-18.618 18.618-47.262 24.347-71.608 12.89l-161.835-74.473c-7.161-2.864-12.89-7.161-18.618-12.89l-307.916-306.484c-11.457-11.457-18.618-28.643-18.618-45.829s7.161-32.94 18.618-45.829l216.257-216.257c11.457-11.457 28.643-18.618 45.829-18.618s32.94 7.161 45.829 18.618l307.916 307.916c5.729 5.729 10.025 11.457 12.89 18.618l74.473 161.835c11.457 24.347 5.729 52.99-12.89 71.608l-130.327 128.895zM830.657 610.551l-74.473-161.835c-1.432-2.864-2.864-4.297-4.297-5.729l-307.916-309.348c-8.593-8.593-21.483-8.593-30.076 0l-216.257 217.69c-4.297 4.297-5.729 8.593-5.729 14.322s2.864 11.457 5.729 14.322l307.916 307.916c1.432 1.432 4.297 2.864 5.729 4.297l161.835 74.473c2.864 1.432 5.729 1.432 8.593 1.432 5.729 0 11.457-2.864 14.322-5.729l128.895-128.895c7.161-5.729 8.593-15.754 5.729-22.915zM665.958 677.863c-20.050 0-38.669-7.161-52.99-21.483-28.643-28.643-28.643-77.337 0-105.98 14.322-14.322 32.94-21.483 52.99-21.483s38.669 7.161 52.99 21.483c28.643 28.643 28.643 77.337 0 105.98-14.322 12.89-32.94 21.483-52.99 21.483zM688.873 579.043c-11.457-11.457-32.94-11.457-45.829 0-12.89 12.89-12.89 32.94 0 45.829 5.729 5.729 14.322 10.025 22.915 10.025s17.186-2.864 22.915-10.025c11.457-12.89 11.457-32.94 0-45.829zM459.726 569.018l-156.106-157.538c-8.593-8.593-8.593-21.483 0-30.076 4.297-4.297 10.025-5.729 15.754-5.729s11.457 1.432 15.754 5.729l156.106 157.538c8.593 8.593 8.593 21.483 0 30.076-10.025 8.593-22.915 8.593-31.508 0z" />
<glyph unicode="&#xe619;" glyph-name="print" d="M776.235 616.28h-35.804v177.589c0 34.372-27.211 61.583-61.583 61.583h-335.127c-34.372 0-61.583-27.211-61.583-61.583v-177.589h-34.372c-57.287 0-103.116-45.829-103.116-103.116v-259.222c0-57.287 45.829-103.116 103.116-103.116h34.372v-47.262c0-34.372 27.211-61.583 61.583-61.583h336.559c34.372 0 61.583 27.211 61.583 61.583v47.262h35.804c57.287 0 103.116 45.829 103.116 103.116v259.222c-1.432 55.855-47.262 103.116-104.548 103.116zM323.67 793.869c0 10.025 8.593 18.618 18.618 18.618h336.559c10.025 0 18.618-8.593 18.618-18.618v-177.589h-373.796v177.589zM698.898 103.564c0-10.025-8.593-18.618-18.618-18.618h-336.559c-10.025 0-18.618 8.593-18.618 18.618v219.122h373.796v-219.122zM836.386 253.941c0-32.94-27.211-60.151-60.151-60.151h-35.804v128.895h12.89c11.457 0 21.483 10.025 21.483 21.483s-10.025 21.483-21.483 21.483h-30.076c-1.432 0-2.864 0-4.297 0h-416.761c-1.432 0-2.864 0-4.297 0h-21.483c-11.457 0-21.483-10.025-21.483-21.483s10.025-21.483 21.483-21.483h4.297v-128.895h-34.372c-32.94 0-60.151 27.211-60.151 60.151v259.222c0 32.94 27.211 60.151 60.151 60.151h529.902c32.94 0 60.151-27.211 60.151-60.151v-259.222zM403.871 245.348h216.257c11.457 0 21.483 10.025 21.483 21.483s-10.025 21.483-21.483 21.483h-216.257c-11.457 0-21.483-10.025-21.483-21.483s10.025-21.483 21.483-21.483zM403.871 168.011h216.257c11.457 0 21.483 10.025 21.483 21.483s-10.025 21.483-21.483 21.483h-216.257c-11.457 0-21.483-10.025-21.483-21.483s10.025-21.483 21.483-21.483zM674.551 538.943c-34.372 0-61.583-27.211-61.583-61.583s27.211-61.583 61.583-61.583 61.583 27.211 61.583 61.583-27.211 61.583-61.583 61.583zM674.551 457.309c-10.025 0-18.618 8.593-18.618 18.618s8.593 18.618 18.618 18.618 18.618-8.593 18.618-18.618-8.593-18.618-18.618-18.618z" />
<glyph unicode="&#xe61a;" glyph-name="sort" d="M327.966 637.762c0-30.848-25.007-55.855-55.855-55.855s-55.855 25.007-55.855 55.855c0 30.848 25.007 55.855 55.855 55.855s55.855-25.007 55.855-55.855zM408.168 616.28h376.66c11.457 0 21.483 10.025 21.483 21.483s-8.593 21.483-20.050 21.483h-378.092c-11.457 0-21.483-10.025-21.483-21.483s10.025-21.483 21.483-21.483zM327.966 448.716c0-30.848-25.007-55.855-55.855-55.855s-55.855 25.007-55.855 55.855c0 30.848 25.007 55.855 55.855 55.855s55.855-25.007 55.855-55.855zM408.168 427.234h376.66c11.457 0 21.483 10.025 21.483 21.483s-10.025 21.483-21.483 21.483h-376.66c-11.457 0-21.483-10.025-21.483-21.483s10.025-21.483 21.483-21.483zM327.966 258.238c0-30.848-25.007-55.855-55.855-55.855s-55.855 25.007-55.855 55.855c0 30.848 25.007 55.855 55.855 55.855s55.855-25.007 55.855-55.855zM807.743 258.238c0 11.457-10.025 21.483-21.483 21.483h-378.092c-11.457 0-21.483-10.025-21.483-21.483s10.025-21.483 21.483-21.483h376.66c12.89 0 22.915 10.025 22.915 21.483z" />
<glyph unicode="&#xe61b;" glyph-name="tool" d="M721.813 630.601h-67.312v44.397c0 40.101-31.508 71.608-71.608 71.608h-141.785c-40.101 0-71.608-31.508-71.608-71.608v-44.397h-67.312c-57.287 0-103.116-45.829-103.116-103.116v-105.98c0 0 0 0 0 0s0 0 0 0v-168.996c0-57.287 45.829-103.116 103.116-103.116h419.625c57.287 0 103.116 45.829 103.116 103.116v168.996c0 0 0 0 0 0s0 0 0 0v105.98c0 57.287-45.829 103.116-103.116 103.116zM412.464 674.999c0 15.754 12.89 28.643 28.643 28.643h141.785c15.754 0 28.643-12.89 28.643-28.643v-44.397h-199.071v44.397zM242.036 527.485c0 32.94 27.211 60.151 60.151 60.151h419.625c32.94 0 60.151-27.211 60.151-60.151v-84.498h-120.302v15.754c0 17.186-12.89 30.076-30.076 30.076s-30.076-12.89-30.076-30.076v-15.754h-181.885v15.754c0 17.186-12.89 30.076-30.076 30.076s-30.076-12.89-30.076-30.076v-15.754h-117.438v84.498zM781.964 252.509c0-32.94-27.211-60.151-60.151-60.151h-419.625c-32.94 0-60.151 27.211-60.151 60.151v147.513h117.438v-15.754c0-17.186 12.89-30.076 30.076-30.076s30.076 12.89 30.076 30.076v15.754h181.885v-15.754c0-17.186 12.89-30.076 30.076-30.076s30.076 12.89 30.076 30.076v15.754h120.302v-147.513z" />
<glyph unicode="&#xe61c;" glyph-name="trash" d="M760.481 687.888h-157.538v51.558c0 34.372-27.211 61.583-61.583 61.583h-58.719c-34.372 0-61.583-27.211-61.583-61.583v-51.558h-157.538c-34.372 0-63.015-28.643-63.015-61.583v-25.779c0-34.372 27.211-61.583 61.583-61.583h10.025v-380.957c0-34.372 27.211-61.583 61.583-61.583h353.745c34.372 0 61.583 27.211 61.583 61.583v379.524h10.025c34.372 0 61.583 27.211 61.583 61.583v25.779c1.432 34.372-25.779 63.015-60.151 63.015zM464.022 738.014c0 10.025 8.593 18.618 18.618 18.618h58.719c10.025 0 18.618-8.593 18.618-18.618v-45.829h-95.955v45.829zM707.491 157.986c0-10.025-8.593-18.618-18.618-18.618h-353.745c-10.025 0-18.618 8.593-18.618 18.618v379.524h392.414v-379.524zM779.099 599.094c0-10.025-8.593-18.618-18.618-18.618h-498.394c-10.025 0-18.618 8.593-18.618 18.618v25.779c0 10.025 8.593 18.618 18.618 18.618h496.962c10.025 0 18.618-8.593 18.618-18.618v-25.779zM416.761 210.976c11.457 0 21.483 10.025 21.483 21.483v230.579c0 11.457-10.025 21.483-21.483 21.483s-21.483-10.025-21.483-21.483v-230.579c0-11.457 10.025-21.483 21.483-21.483zM511.284 210.976c11.457 0 21.483 10.025 21.483 21.483v230.579c0 11.457-10.025 21.483-21.483 21.483s-21.483-10.025-21.483-21.483v-230.579c0-11.457 10.025-21.483 21.483-21.483zM615.832 210.976c11.457 0 21.483 10.025 21.483 21.483v230.579c0 11.457-10.025 21.483-21.483 21.483s-21.483-10.025-21.483-21.483v-230.579c0-11.457 8.593-21.483 21.483-21.483z" />
<glyph unicode="&#xe61d;" glyph-name="unlock" d="M675.983 801.029c-85.93 0-156.106-70.176-156.106-156.106v-64.448h-226.283c-57.287 0-103.116-45.829-103.116-103.116v-279.273c0-57.287 45.829-103.116 103.116-103.116h279.273c57.287 0 103.116 45.829 103.116 103.116v279.273c0 57.287-45.829 103.116-103.116 103.116h-10.025v64.448c0 63.015 51.558 113.141 113.141 113.141s113.141-51.558 113.141-113.141v-85.93c0-11.457 10.025-21.483 21.483-21.483s21.483 10.025 21.483 21.483v85.93c1.432 85.93-68.744 156.106-156.106 156.106zM572.867 537.51c32.94 0 60.151-27.211 60.151-60.151v-279.273c0-32.94-27.211-60.151-60.151-60.151h-279.273c-32.94 0-60.151 27.211-60.151 60.151v279.273c0 32.94 27.211 60.151 60.151 60.151h279.273zM423.922 261.102c20.050 0 35.804 15.754 35.804 35.804v71.608c0 20.050-15.754 35.804-35.804 35.804s-35.804-15.754-35.804-35.804v-71.608c0-20.050 17.186-35.804 35.804-35.804z" />
<glyph unicode="&#xe61e;" glyph-name="user" d="M511.284 417.208c83.066 0 150.378 67.312 150.378 150.378s-67.312 150.378-150.378 150.378-150.378-67.312-150.378-150.378 67.312-150.378 150.378-150.378zM511.284 676.431c60.151 0 107.413-48.694 107.413-107.413s-48.694-107.413-107.413-107.413-107.413 48.694-107.413 107.413 48.694 107.413 107.413 107.413zM287.866 176.604c11.457 0 21.483 10.025 21.483 21.483 0 85.93 90.227 157.538 201.936 157.538s201.936-70.176 201.936-157.538c0-11.457 10.025-21.483 21.483-21.483s21.483 10.025 21.483 21.483c0 110.277-110.277 200.503-244.901 200.503s-244.901-90.227-244.901-200.503c0-11.457 10.025-21.483 21.483-21.483z" />
<glyph unicode="&#xe61f;" glyph-name="visible" d="M850.708 384.269c30.076 37.236 30.076 90.227 0 128.895-83.066 103.116-206.232 163.267-339.424 163.267s-256.358-60.151-339.424-163.267c-30.076-37.236-30.076-90.227 0-128.895 83.066-104.548 206.232-163.267 339.424-163.267 133.192-1.432 256.358 58.719 339.424 163.267zM511.284 262.534c-118.87 0-230.579 54.422-305.052 147.513-17.186 21.483-17.186 52.99 0 74.473 74.473 93.091 186.182 147.513 305.052 147.513s230.579-54.422 305.052-147.513c17.186-21.483 17.186-52.99 0-74.473-73.041-93.091-184.75-147.513-305.052-147.513zM598.646 474.495c2.864-11.457 15.754-17.186 27.211-14.322s17.186 15.754 14.322 27.211c-17.186 55.855-68.744 94.523-127.463 94.523-73.041 0-133.192-60.151-133.192-133.192s60.151-133.192 133.192-133.192c54.422 0 101.684 31.508 123.166 81.634 4.297 11.457 0 22.915-11.457 28.643-11.457 4.297-22.915 0-28.643-11.457-14.322-32.94-47.262-55.855-83.066-55.855-50.126 0-90.227 40.101-90.227 90.227s40.101 90.227 90.227 90.227c38.669 0 74.473-25.779 85.93-64.448zM554.249 448.716c0-23.729-19.236-42.965-42.965-42.965s-42.965 19.236-42.965 42.965c0 23.729 19.236 42.965 42.965 42.965s42.965-19.236 42.965-42.965z" />
<glyph unicode="&#xe800;" glyph-name="exposition" d="M743.318 238.291h-462.635c-61.869 0-112.292 50.372-112.292 112.292v277.33c0 61.903 50.409 112.292 112.292 112.292h462.635c61.869 0 112.292-50.388 112.292-112.292v-277.33c0-61.913-50.409-112.292-112.292-112.292zM280.682 691.2c-34.916 0-63.29-28.378-63.29-63.272v-277.33c0-34.916 28.378-63.29 63.29-63.29h462.635c34.916 0 63.301 28.406 63.301 63.29v277.32c0 34.916-28.406 63.272-63.301 63.272h-462.635zM732.912 458.446c-10.152 0-18.424-8.242-18.424-18.424v-63.852c0-6.046-4.9-10.95-10.95-10.95h-73.255c-10.101 0-18.39-8.242-18.39-18.362 0-10.152 8.29-18.362 18.39-18.362h73.255c26.321 0 47.7 21.389 47.7 47.673v63.852c0 10.152-8.233 18.424-18.343 18.424v0zM361.287 155.798c-8.742 0-17.202 4.809-21.436 13.164-5.965 11.805-1.234 26.24 10.581 32.225l148.676 75.229c6.79 3.451 14.825 3.451 21.643 0l148.732-75.229c11.805-5.965 16.551-20.399 10.564-32.225s-20.399-16.551-32.198-10.581l-137.901 69.766-137.864-69.766c-3.451-1.741-7.148-2.586-10.784-2.586z" />
<glyph unicode="&#xe801;" glyph-name="floor-share" d="M324.326 245.163c-29.72 0-53.008 18.4-53.008 41.862v131.199c0 23.485 23.29 41.851 53.008 41.851s53.008-18.357 53.008-41.851v-131.199c-0.022-23.473-23.307-41.862-53.008-41.862zM324.326 426.888c-13.028 0-19.846-6.451-19.846-8.678v-131.199c0-2.25 6.818-8.701 19.846-8.701 13.016 0 19.846 6.451 19.846 8.701v131.199c-0.022 2.227-6.83 8.678-19.846 8.678zM459.842 245.163c-29.72 0-52.996 18.4-52.996 41.862v291.991c0 23.485 23.267 41.885 52.996 41.885s53.008-18.4 53.008-41.885v-292.014c-0.022-23.451-23.29-41.851-53.008-41.851zM459.842 587.735c-12.994 0-19.824-6.474-19.824-8.701v-292.014c0-2.25 6.818-8.701 19.824-8.701 13.028 0 19.846 6.451 19.846 8.701v291.991c-0.022 2.25-6.83 8.716-19.846 8.716zM595.369 245.163c-29.72 0-53.008 18.4-53.008 41.862v212.227c0 23.485 23.29 41.862 53.008 41.862s53.008-18.377 53.008-41.862v-212.227c-0.022-23.473-23.29-41.862-53.008-41.862zM595.369 507.975c-13.016 0-19.846-6.474-19.846-8.701v-212.227c0-2.25 6.83-8.701 19.846-8.701 13.028 0 19.824 6.451 19.824 8.701v212.227c0 2.227-6.795 8.701-19.824 8.701zM730.896 245.163c-29.72 0-53.008 18.4-53.008 41.862v354.388c0 23.473 23.29 41.862 53.008 41.862s53.008-18.377 53.008-41.862v-354.388c-0.022-23.473-23.307-41.862-53.008-41.862zM730.896 650.102c-13.028 0-19.846-6.451-19.846-8.678v-354.388c0-2.25 6.818-8.701 19.846-8.701 13.016 0 19.846 6.451 19.846 8.701v354.388c-0.022 2.227-6.853 8.678-19.846 8.678zM903.871 211.611l-55.728 55.728c-5.165 5.165-14.225 5.187-19.41 0-2.594-2.594-4.024-6.038-4.024-9.711s1.435-6.256 4.024-8.845l28.18-27.33h-625.832v525.154l34.975-32.691c2.789-2.812 7.633-4.35 11.6-4.35 3.949 0 8.242 1.538 11.040 4.35s4.626 6.508 4.626 10.457c0 3.949-1.399 7.683-4.201 10.491l-60.928 61.020c-5.579 5.579-15.301 5.601-20.914 0l-61.008-61.043c-2.789-2.789-4.328-6.508-4.328-10.48 0-3.949 1.538-7.668 4.328-10.457 5.617-5.617 12.833-5.617 18.412 0l30.154 32.691v-525.154h-48.405c-9.837 0-17.837-8.265-17.837-18.125s7.989-18.125 17.837-18.125h48.405v-54.661c0-9.837 8.265-17.837 18.125-17.837s18.125 7.989 18.125 17.837v54.661h625.832l-28.18-28.765c-2.606-2.594-4.024-6.347-4.024-10.007 0-3.68 1.435-7.253 4.024-9.826 2.594-2.594 6.038-4.11 9.711-4.11 3.662 0 7.123 1.412 9.711 4.006l55.728 55.717c2.606 2.594 4.024 6.038 4.024 9.699-0.022 3.662-1.435 7.105-4.040 9.699z" />
<glyph unicode="&#xe803;" glyph-name="icon-position" d="M203.705 448l1.414 1.424c-0.023-0.495-0.137-0.929-0.137-1.424 0-0.518 0.116-0.929 0.137-1.424l-1.414 1.424zM512.168 513.512c36.018 0 65.327-29.295 65.327-65.702 0-36.018-29.315-65.313-65.327-65.313h-0.381c-35.995 0-65.291 29.315-65.291 65.702 0 35.995 29.315 65.313 65.671 65.313v0zM512 756.318l1.414-1.424c-0.487 0.023-0.929 0.137-1.414 0.137-0.495 0-0.95-0.116-1.424-0.137l1.424 1.424zM512 139.682l-1.424 1.446c0.487-0.031 0.95-0.16 1.424-0.16s0.95 0.116 1.424 0.16l-1.424-1.446zM820.333 448l-1.424-1.424c0.031 0.495 0.137 0.906 0.137 1.424 0 0.487-0.107 0.929-0.137 1.424l1.424-1.424zM228.935 422.724c0.495-0.023 0.95-0.137 1.424-0.137h168.173c9.76-43.806 44.271-78.324 88.077-88.054v-168.173c0-0.495 0.116-0.959 0.137-1.424l-47.582 47.582c-9.92 9.942-25.991 9.942-35.911 0-9.92-9.92-9.92-25.991 0-35.911l90.81-90.818c4.751-4.728 11.207-7.408 17.952-7.408 6.722 0 13.186 2.68 17.929 7.439l90.818 90.818c9.92 9.92 9.92 25.991 0 35.911-9.92 9.942-26.014 9.942-35.911 0l-47.605-47.582c0.031 0.464 0.16 0.929 0.16 1.424v168.129c43.7 9.71 78.157 44.164 88.001 88.054h168.236c0.464 0 0.929 0.116 1.414 0.137l-47.582-47.575c-9.92-9.942-9.92-25.991 0-35.911 4.971-4.971 11.471-7.439 17.96-7.439 6.479 0 13.001 2.49 17.952 7.439l90.787 90.818c9.92 9.897 9.92 25.978 0 35.896l-90.787 90.81c-9.92 9.92-25.991 9.92-35.911 0s-9.92-25.991 0-35.911l47.605-47.582c-0.495 0.023-0.959 0.116-1.424 0.116h-168.173c-9.71 43.722-44.164 78.21-88.054 88.023v168.22c0 0.487-0.116 0.929-0.16 1.424l47.605-47.605c4.936-4.971 11.427-7.439 17.952-7.439 6.502 0 13.011 2.48 17.96 7.439 9.92 9.92 9.92 25.991 0 35.911l-90.818 90.787c-9.92 9.942-25.991 9.942-35.896 0l-90.81-90.787c-9.92-9.92-9.92-25.991 0-35.911 9.942-9.92 25.991-9.92 35.911 0l47.582 47.605c-0.023-0.495-0.137-0.929-0.137-1.424v-168.173c-43.722-9.73-78.165-44.195-88.001-88.084h-168.236c-0.487 0-0.95-0.107-1.424-0.116l47.582 47.582c9.92 9.92 9.92 25.991 0 35.911-9.897 9.92-25.991 9.92-35.911 0l-90.787-90.81c-9.92-9.92-9.92-25.991 0-35.896l90.787-90.818c4.949-4.971 11.471-7.439 17.96-7.439s13.001 2.49 17.952 7.439c9.92 9.92 9.92 25.991 0 35.911l-47.582 47.582z" />
<glyph unicode="&#xe804;" glyph-name="material-pop" d="M773.752 424.383c-10.044 0-18.184-8.144-18.184-18.161v-62.994c0-5.95-4.835-10.792-10.786-10.792h-72.276c-9.982 0-18.148-8.128-18.148-18.126 0-10.044 8.167-18.116 18.148-18.116h72.276c25.972 0 47.056 21.090 47.056 47.039v62.994c0 10.017-8.128 18.161-18.092 18.161v0zM407.159 125.838c-8.627 0-16.955 4.756-21.138 12.992-5.881 11.659-1.209 25.88 10.442 31.784l146.671 74.222c6.704 3.389 14.634 3.389 21.354 0l146.699-74.222c11.659-5.901 16.311-20.125 10.407-31.784-5.901-11.667-20.125-16.319-31.761-10.43l-136.039 68.806-136.005-68.806c-3.389-1.746-7.022-2.561-10.625-2.561zM783.987 706.456h-355.531l-14.49-53.472h370.021c34.451 0 57.768-27.023 57.768-61.458v-273.572c0-34.419-23.325-57.113-57.768-57.113h-456.348c-34.438 0-56.274 22.681-56.274 57.125v156.771l-53.472-25.385v-131.402c0-61.065 48.694-110.584 109.746-110.584h456.363c61.053 0 111.228 49.52 111.228 110.598v273.556c0 61.087-50.175 114.932-111.242 114.932zM435.837 599.455l-60.548 40.744 20.516 70.047c1.999 6.776-0.215 14.1-5.617 18.643-5.399 4.56-12.979 5.491-19.321 2.362l-65.556-32.083-50.393 52.817c-4.882 5.1-12.314 6.846-18.951 4.457-6.651-2.402-11.246-8.5-11.728-15.542l-5.008-72.815-70.914-17.241c-6.863-1.677-12.084-7.237-13.336-14.172-1.249-6.95 1.726-13.991 7.593-17.931l60.548-40.744-20.516-70.047c-1.999-6.776 0.215-14.1 5.617-18.643s12.979-5.491 19.321-2.389l65.556 32.083 50.393-52.794c3.423-3.584 8.11-5.525 12.907-5.525 2.033 0 4.072 0.356 6.060 1.068 6.651 2.402 11.246 8.5 11.728 15.542l5.008 72.815 70.914 17.241c6.863 1.677 12.084 7.237 13.336 14.186 1.229 6.935-1.746 13.973-7.611 17.917z" />
<glyph unicode="&#xe900;" glyph-name="ranking" d="M623.816 54.306c0-23.517-18.856-44.154-42.375-44.154h-136.211c-23.519 0-42.693 20.638-42.693 44.154v421.309c0 23.519 19.174 43.006 42.693 43.006h136.211c23.519 0 42.375-19.484 42.375-43.006v-421.309zM430.506 708.878l-13.59-79.253c-1.059-6.182 1.481-12.429 6.556-16.116 2.87-2.086 6.269-3.147 9.684-3.147 2.622 0 5.254 0.626 7.665 1.893l71.176 37.42 71.174-37.42c5.551-2.919 12.279-2.434 17.354 1.255 5.075 3.686 7.615 9.934 6.556 16.116l-13.59 79.253 57.579 56.127c4.491 4.378 6.109 10.927 4.169 16.892-1.937 5.965-7.095 10.313-13.3 11.215l-79.578 11.565-35.586 72.108c-2.775 5.626-8.505 9.185-14.776 9.185s-12.001-3.562-14.776-9.185l-35.586-72.108-79.575-11.565c-6.208-0.902-11.363-5.249-13.3-11.215-1.94-5.965-0.323-12.514 4.169-16.892l57.575-56.127zM474.948 773.307c5.367 0.782 10.005 4.15 12.408 9.014l24.644 49.936 24.644-49.936c2.401-4.863 7.041-8.234 12.408-9.014l55.11-8.008-39.875-38.87c-3.882-3.785-5.654-9.24-4.739-14.586l9.411-54.884-49.291 25.913c-2.401 1.262-5.033 1.893-7.667 1.893s-5.268-0.631-7.667-1.893l-49.291-25.913 9.414 54.884c0.916 5.346-0.855 10.798-4.739 14.586l-39.88 38.87 55.108 8.008zM880.405 54.306c0-23.517-17.323-44.154-40.845-44.154h-136.211c-23.519 0-44.225 20.638-44.225 44.154v207.093c0 23.519 20.704 43.006 44.225 43.006h136.211c23.519 0 40.845-19.484 40.845-43.006v-207.093zM688.627 494.661l-13.592-79.253c-1.059-6.182 1.481-12.429 6.556-16.116 2.87-2.086 6.271-3.147 9.687-3.147 2.622 0 5.257 0.626 7.667 1.893l71.176 37.42 71.174-37.42c5.551-2.919 12.279-2.434 17.354 1.255 5.075 3.686 7.615 9.934 6.556 16.116l-13.59 79.253 57.579 56.127c4.491 4.378 6.109 10.927 4.169 16.892-1.937 5.965-7.095 10.313-13.3 11.215l-79.578 11.565-35.586 72.108c-2.775 5.626-8.505 9.185-14.776 9.185s-12.001-3.562-14.776-9.185l-35.586-72.108-79.578-11.565c-6.208-0.902-11.363-5.249-13.3-11.215-1.94-5.965-0.323-12.514 4.169-16.892l57.575-56.127zM733.069 559.091c5.367 0.782 10.005 4.15 12.408 9.014l24.644 49.936 24.644-49.936c2.401-4.863 7.041-8.234 12.408-9.014l55.11-8.008-39.875-38.87c-3.882-3.785-5.654-9.24-4.739-14.586l9.411-54.884-49.291 25.913c-2.401 1.262-5.033 1.893-7.667 1.893s-5.268-0.631-7.667-1.893l-49.291-25.913 9.414 54.884c0.916 5.346-0.855 10.798-4.739 14.586l-39.882 38.87 55.11 8.008zM364.874 54.306c0-23.517-18.032-44.154-41.551-44.154h-136.211c-23.519 0-43.516 20.638-43.516 44.154v207.093c0 23.519 19.997 43.006 43.516 43.006h136.211c23.519 0 41.551-19.484 41.551-43.006v-207.093zM172.39 494.661l-13.592-79.253c-1.059-6.182 1.481-12.429 6.556-16.116 2.87-2.086 6.269-3.147 9.684-3.147 2.622 0 5.257 0.626 7.667 1.893l71.176 37.42 71.174-37.42c5.551-2.919 12.279-2.434 17.352 1.255 5.075 3.686 7.615 9.934 6.556 16.116l-13.59 79.253 57.582 56.127c4.489 4.378 6.109 10.927 4.169 16.892-1.937 5.965-7.095 10.313-13.3 11.215l-79.578 11.565-35.586 72.108c-2.778 5.626-8.505 9.185-14.776 9.185-6.273 0-12.003-3.562-14.776-9.185l-35.586-72.108-79.578-11.565c-6.208-0.902-11.363-5.249-13.3-11.215-1.94-5.965-0.323-12.514 4.169-16.892l57.577-56.127zM216.831 559.091c5.365 0.782 10.005 4.15 12.408 9.014l24.644 49.936 24.644-49.936c2.401-4.863 7.039-8.234 12.408-9.014l55.105-8.008-39.875-38.87c-3.882-3.785-5.654-9.24-4.739-14.586l9.411-54.884-49.291 25.913c-2.401 1.262-5.033 1.893-7.667 1.893s-5.268-0.631-7.669-1.893l-49.289-25.913 9.414 54.884c0.916 5.346-0.855 10.798-4.741 14.586l-39.875 38.87 55.11 8.008z" />
<glyph unicode="&#xe901;" glyph-name="star" d="M770.808 30.605c-3.24 0-6.497 0.775-9.471 2.341l-242.285 127.368-242.308-127.368c-6.842-3.608-15.177-3.014-21.448 1.549s-9.409 12.282-8.109 19.921l46.277 269.806-196.009 191.038c-5.558 5.417-7.554 13.503-5.151 20.876s8.782 12.751 16.438 13.871l270.903 39.372 121.131 245.463c6.865 13.91 29.675 13.91 36.539 0l121.131-245.463 270.903-39.372c7.656-1.12 14.035-6.497 16.438-13.871s0.407-15.459-5.151-20.876l-196.009-191.038 46.26-269.806c1.306-7.639-1.832-15.358-8.109-19.921-3.545-2.567-7.758-3.89-11.976-3.89zM155.442 515.645l174.131-169.715c4.806-4.685 6.989-11.428 5.864-18.027l-41.125-239.679 215.237 113.147c5.926 3.116 13.034 3.116 18.965 0l215.237-113.147-41.103 239.679c-1.12 6.599 1.057 13.339 5.864 18.027l174.131 169.715-240.657 34.973c-6.638 0.956-12.366 5.134-15.336 11.139l-107.606 218.067-107.606-218.050c-2.974-6.011-8.697-10.184-15.336-11.139l-240.657-34.996z" />
<glyph unicode="&#xe902;" glyph-name="conhecimento" d="M237.227 641.308c-9.17-19.934-18.796-59.255 7.646-114.301 3.732-7.737 11.014-13.175 19.502-14.609l278.551-46.103c12.311-2.025 24.895 0.478 35.453 7.1l226.145 141.358c11.287 7.054 26.123 3.618 33.178-7.669 1.843-2.935 2.958-6.121 3.413-9.353 3.459-10.103 0.614-22.278-10.24-29.013l-234.564-145.362c-12.015-7.441-26.237-10.468-40.255-8.556l-300.191 41.006c-6.736 0.933-13.335-2.685-16.088-8.92-8.897-20.070-17.909-59.529 9.398-114.187 3.823-7.691 11.218-13.016 19.729-14.268l279.256-41.847c12.311-1.843 24.872 0.865 35.294 7.623l223.96 144.816c9.99 6.44 22.96 4.574 30.743-3.868l0.114 0.159c0.569-0.705 1.115-1.479 1.593-2.23 0.273-0.41 0.592-0.774 0.865-1.206 7.214-11.173 4.028-26.078-7.145-33.291l-175.741-113.391 0.296-0.068-66.31-41.984c-8.852-5.484-19.297-7.691-29.628-6.281l-2.094 0.296-0.023-0.023-303.536 44.442c-3.14 0.478-6.212 1.274-9.193 2.321-2.708-1.57-4.983-3.937-6.281-6.986-8.897-20.093-17.909-59.529 9.375-114.21 3.846-7.691 11.218-13.016 19.729-14.29l279.233-41.825c12.311-1.843 24.872 0.865 35.317 7.6l223.96 144.816c11.173 7.236 26.078 4.050 33.314-7.122 7.214-11.173 4.028-26.101-7.145-33.314l-175.741-113.368 0.296-0.068-66.31-41.984c-8.829-5.484-19.319-7.714-29.605-6.303l-2.094 0.319h-0.023l-303.559 44.464c-9.58 1.388-18.478 5.643-25.668 12.106-54.090 48.583-52.656 116.713-46.353 147.684 4.938 24.257 14.7 46.194 21.163 58.778 0.114 0.205 0.228 0.387 0.341 0.569-29.833 44.282-27.967 95.095-22.778 120.627 4.938 24.28 14.7 46.194 21.185 58.778 1.070 2.071 2.412 3.959 4.005 5.666-36.568 46.899-33.997 103.492-27.989 130.822 5.325 24.189 15.428 45.989 22.096 58.436 2.412 4.528 6.167 8.215 10.672 10.604l280.53 148.958c8.169 4.278 17.476 5.734 26.556 4.255l299.964-49.539c22.619-3.732 28.285-33.61 8.624-45.375l-236.772-141.744c-12.129-7.259-26.419-10.058-40.368-7.942l-299.554 45.602c-6.758 1.070-13.403-2.412-16.247-8.602z" />
<glyph unicode="&#xe903;" glyph-name="exibicao" d="M320.992-28.058c-42.221 0-76.563 31.755-76.563 70.79v810.563c0 39.036 34.341 70.79 76.563 70.79h378.689c41.502 0 76.563-32.425 76.563-70.79v-810.563c0-39.036-34.341-70.79-76.563-70.79h-378.689zM320.992 898.722c-27.588 0-50.026-20.379-50.026-45.429v-810.563c0-25.050 22.438-45.429 50.026-45.429h377.562c27.588 0 50.026 20.379 50.026 45.429v5.986h1.101v804.574c0 25.050-22.438 45.429-50.004 45.429h-378.689zM699.68 918.072c38.077 0 70.574-29.838 70.574-64.802v-810.563c0-35.993-31.373-64.802-70.574-64.802h-378.689c-39.204 0-70.574 28.809-70.574 64.802v810.586c0 35.993 31.373 64.802 70.574 64.802h378.689zM320.992-8.685h377.562c31.373 0 56.015 23.661 56.015 51.415h1.101v810.563c0 28.809-25.769 51.415-55.989 51.415h-378.689c-31.373 0-56.015-23.661-56.015-51.415v-810.563c0.023-28.809 25.792-51.415 56.015-51.415zM699.68 930.047h-378.689c-45.526 0-82.548-34.435-82.548-76.776v-810.563c0-42.341 37.022-76.776 82.548-76.776h378.689c45.501 0 82.548 34.435 82.548 76.776v810.586c0 41.622-37.815 76.754-82.548 76.754v0zM320.992 3.289c-24.283 0-44.040 17.698-44.040 39.443v810.563c0 21.745 19.757 39.443 44.040 39.443h378.689c24.283 0 44.015-17.698 44.015-39.443v-798.589l-1.101-11.975c0-21.745-19.757-39.443-44.040-39.443h-377.562zM437.762 826.064h148.454c5.701 0 10.871 4.646 10.871 10.871 0 6.203-4.646 10.871-10.871 10.871h-148.454c-5.701 0-10.871-4.646-10.871-10.871 0.023-6.225 4.668-10.871 10.871-10.871zM425.165 45.485h171.299c11.159 0 21.289 9.1 21.289 21.289 0 12.166-9.1 21.266-21.289 21.266h-171.299c-11.159 0-21.289-9.1-21.289-21.266s9.123-21.289 21.289-21.289zM312.61 141.707h394.493v639.743h-394.493v-639.743zM326.165 768.828h368.316v-613.566h-368.316v613.566zM351.703 687.791l-9.605 9.595 54.817 54.879 9.605-9.595-54.817-54.879zM450.343 752.798l9.615-9.589-108.844-109.123-9.615 9.589 108.844 109.123zM695.537 823.429c7.064 0 13.483 5.795 13.483 13.506s-5.795 13.483-13.483 13.483c-7.711 0-13.506-5.795-13.506-13.483 0-7.711 6.419-13.506 13.506-13.506zM653.795 829.92c3.665 0 7.015 3.017 7.015 7.015s-2.994 7.015-7.015 7.015-7.015-2.994-7.015-7.015 3.328-7.015 7.015-7.015zM626.423 829.92c3.665 0 7.015 3.017 7.015 7.015s-2.994 7.015-7.015 7.015-7.015-2.994-7.015-7.015 3.328-7.015 7.015-7.015z" />
<glyph unicode="&#xe904;" glyph-name="comunicacao_visual" d="M855.086 670.845h-81.351v160.017c0 28.012-23.506 51.541-51.541 51.541h-419.476c-28.012 0-51.541-23.506-51.541-51.541v-160.017h-81.351c-42.507 0-77.756-34.361-77.756-77.756v-316.416c0-42.507 34.361-77.756 77.756-77.756h81.351v-133.803c0-28.012 23.506-51.541 51.541-51.541h418.588c28.012 0 51.541 23.506 51.541 51.541v134.69h81.351c42.507 0 77.756 34.361 77.756 77.756v315.529c-0.023 42.507-34.384 77.756-76.868 77.756zM296.391 830.862c0 3.618 2.708 6.326 6.326 6.326h418.588c3.618 0 6.326-2.708 6.326-6.326v-160.017h-431.241v160.017zM728.519 66.025c0-3.618-2.708-6.326-6.349-6.326h-418.566c-3.618 0-6.326 2.708-6.326 6.326v346.271h431.241v-346.271zM886.738 277.584c0-18.068-14.473-32.54-32.563-32.54h-81.351v189.85c0 12.675-9.944 22.619-22.596 22.619h-476.456c-12.652 0-22.596-9.944-22.596-22.619v-189.85h-81.351c-18.091 0-32.563 14.473-32.563 32.54v315.506c0 18.068 14.473 32.563 32.563 32.563h685.261c18.091 0 32.54-14.473 32.54-32.563v-315.529h-0.887zM248.468 548.807c0-15.36-12.652-27.102-27.102-27.102-15.383 0-27.125 12.652-27.125 27.102 0 15.36 12.652 27.125 27.125 27.125 14.45 0.887 27.102-11.765 27.102-27.125zM648.966 209.135c3.482-3.322 4.756-8.26 3.664-12.857-1.297-4.574-4.961-8.26-9.535-9.353l-34.497-8.806 9.717-34.133c1.297-4.574 0-9.535-3.482-12.834-3.3-3.482-8.26-4.779-12.834-3.482l-34.133 9.717-8.806-34.497c-1.092-4.597-4.779-8.238-9.353-9.535-1.115-0.182-2.389-0.364-3.482-0.364-3.504 0-6.986 1.479-9.375 4.028l-24.758 25.327-24.758-25.327c-3.322-3.482-8.26-4.756-12.857-3.664-4.756 1.297-8.26 4.961-9.353 9.535l-8.806 34.497-34.133-9.717c-4.574-1.297-9.535 0-12.834 3.482-3.482 3.3-4.779 8.26-3.482 12.834l9.717 34.133-34.497 8.806c-4.574 1.092-8.238 4.779-9.535 9.353-1.092 4.597 0.182 9.535 3.664 12.857l25.327 24.758-25.327 24.758c-3.482 3.322-4.756 8.26-3.664 12.857 1.297 4.574 4.961 8.26 9.535 9.353l34.497 8.806-9.717 34.133c-1.297 4.574 0 9.535 3.482 12.834 3.3 3.482 8.26 4.779 12.834 3.482l34.133-9.717 8.806 34.497c1.092 4.597 4.779 8.26 9.353 9.353 4.597 1.274 9.535 0 12.857-3.482l24.758-25.509 24.758 25.509c3.322 3.482 8.078 4.756 12.857 3.482 4.574-1.092 8.26-4.756 9.353-9.353l8.806-34.497 34.133 9.717c4.574 1.297 9.535 0 12.834-3.482 3.482-3.3 4.779-8.26 3.482-12.834l-9.717-34.133 34.497-8.806c4.574-1.092 8.238-4.779 9.535-9.353 1.092-4.597-0.182-9.535-3.664-12.857l-25.327-24.758 25.327-24.758z" />
<glyph unicode="&#xe905;" glyph-name="manutencao" d="M795.968 939.938c-120.976 0-219.369-98.409-219.369-219.369s98.391-219.369 219.369-219.369c120.968 0 219.364 98.404 219.364 219.369s-98.396 219.369-219.364 219.369zM795.968 539.35c-100.074 0-181.219 81.134-181.219 181.214 0 100.083 81.146 181.219 181.219 181.219 100.069 0 181.211-81.134 181.211-181.219 0-100.082-81.142-181.214-181.211-181.214zM718.39 602.619c-3.666-3.678-8.941-5.91-14.386-5.91-5.418 0-10.695 2.233-14.527 5.91l-16.954 17.262c-3.836 3.678-6.070 8.949-6.070 14.381 0 5.427 2.236 10.703 6.070 14.54l108.823 108.827c8.313-20.939 25.092-37.715 46.032-46.020l-108.989-108.989zM714.254 654.719c-5.586 0-10.245-4.638-10.245-10.224 0-5.591 4.658-10.224 10.245-10.224 5.594 0 10.213 4.638 10.213 10.224-0.005 5.586-4.617 10.224-10.213 10.224zM925.018 764.175c-10.058-28.446-37.387-48.098-67.587-48.098-39.489 0-71.607 32.117-71.607 71.589 0 39.477 32.117 71.589 71.607 71.589 11.662 0 26.825-3.517 36.584-10.071 1.605-1.114 2.556-2.548 2.556-4.469 0-1.763-1.119-3.521-2.556-4.48l-46.831-27.004v-35.795l30.845-17.099c5.274 3.039 42.362 26.368 45.546 26.368s5.122-2.395 5.122-5.586c0.005-5.282-1.932-11.828-3.682-16.945zM688.392 574.747l71.411-164.788c-1.239-5.116-5.83-8.694-11.465-8.694h-45.42l-98.687 210.654h46.688c-7.531 10.039-14.017 20.907-19.356 32.408h-493.604v89.268c0 7.572 7.51 7.957 11.063 7.957h466.967c1.449 12.594 4.201 24.789 8.102 36.464h-475.070c-26.651 0-47.522-19.754-47.522-44.416v-100.843l-93.174-216.395v-3.54c0-25.238 21.603-43.967 46.95-43.967h42.172v-328.324c0-25.343 25.971-48.423 51.573-48.423h505.359c24.265 0 42.625 21.268 42.625 48.423v328.329h51.334c25.347 0 45.89 18.723 45.89 43.967v3.54l-57.995 133.108c-17.29 6.035-33.392 14.592-47.846 25.274zM413.432 611.921h59.129l49.95-210.654h-109.079v210.654zM381.024 611.921v-210.654h-99.915l49.953 210.654h49.961zM295.939 611.921l-49.95-210.654h-107.56l98.687 210.654h58.821zM100.7 401.267h-45.42c-5.635 0-10.224 3.577-11.46 8.694l87.519 201.96h68.049l-98.687-210.654zM462.045 24.52h-129.634v221.134c0 0.179 2.828 1.673 3.945 1.673h125.688v-222.807zM660.549 40.537c0-6.882-0.717-16.015-6.162-16.015h-155.88v224.788c0 18.736-12.275 30.427-31.23 30.427h-130.918c-21.135 0-36.353-12.841-36.353-30.427v-224.791h-150.978c-6.614 0-15.114 9.622-15.114 16.015v328.324h526.635v-328.321zM557.636 401.267l-49.953 210.654h58.821l98.687-210.654h-107.555z" />
<glyph unicode="&#xe906;" glyph-name="atendimento" d="M986.451 499.787l-5.191 1.847 4.769-1.146-74.442 201.957-5.191-1.941-0.117 0.304-7.014-2.946-12.275-4.559 0.187-0.515-159.826-66.984-170.534-6.897c-24.479 11.199-44.797 18.049-49.519 16.366-98.080-34.672-153.864-39.489-153.864-39.489l-217.692 59.572-83.958-193.259 190.758-90.457 19.569-36.8-9.025-7.388c-23.614-19.031-27.307-53.727-8.276-77.318 10.849-13.443 26.794-20.434 42.856-20.434 4.933 0 9.867 0.654 14.66 1.987 0.491-11.643 4.676-22.749 12.11-31.961 10.38-12.859 26.139-18.494 42.247-18.494 4.068 0 8.136 0.374 12.158 1.052-0.467-12.789 3.46-25.835 12.134-36.589 10.849-13.42 26.794-20.411 42.856-20.411 12.134 0 24.339 3.974 34.463 12.158l5.517 4.465c1.426-7.365 4.606-14.566 9.68-20.808 9.352-11.62 23.146-17.651 37.011-17.651 10.474 0 21.018 3.437 29.787 10.521l27.027 21.837c12.999-13.233 34.954-15.151 50.29-3.881 13.818 10.193 17.909 27.916 10.919 42.365l2.478-2.993c13.49-16.319 38.717-19.266 56.018-6.5 13.864 10.193 18.587 27.472 13.023 42.318 14.005-13.256 36.824-14.94 52.839-3.133l1.193 0.889c15.805 11.643 19.756 32.452 10.030 48.42 15.314-11.83 37.969-12.602 54.172-0.654 18.821 13.818 22.188 39.652 7.505 57.375l-24.315 29.365 36.028 46.994 148.955 113.417zM783.653 358.548c-15.267 10.662-36.871 10.942-52.535-0.585-18.797-13.818-22.188-39.652-7.528-57.375l2.221-2.665c-14.051 9.749-33.924 10.030-48.303-0.561l-1.193-0.865c-14.893-10.965-19.242-30.090-11.573-45.614-14.075 10.077-34.205 10.428-48.724-0.257-15.945-11.714-19.803-32.802-9.749-48.818l-0.748-0.585c-13.093 8.721-31.213 8.791-44.445-0.935-14.168-10.428-18.12-28.735-10.451-43.37l-27.238-21.977c-8.814-7.13-21.814-5.752-28.944 3.086-7.13 8.814-5.728 21.837 3.086 28.944l64.996 54.569c3.086 2.455 5.097 6.265 5.097 10.545 0 7.435-6.032 13.467-13.467 13.467-3.204 0-6.149-1.099-8.44-2.969v0.024l-104.322-84.192c-12.017-9.726-29.716-7.832-39.443 4.208-4.7 5.798-6.827 13.116-6.032 20.598 0.795 7.458 4.443 14.168 10.241 18.844l123.727 99.856-0.28 0.328c2.852 2.478 4.63 6.078 4.63 10.147 0 7.435-6.032 13.467-13.467 13.467-4.372 0-8.253-2.104-10.708-5.354l-120.828-97.495c-2.759-2.221-5.237-4.676-7.412-7.295-14.682-10.171-37.689-9.867-46.386 0.889-8.978 11.152-8.043 27.12 1.683 37.151l11.877 9.445 135.113 103.153c3.204 2.455 5.308 6.336 5.308 10.708 0 7.435-6.032 13.467-13.467 13.467-3.063 0-5.891-1.028-8.183-2.782v0l-145.003-110.705c-1.239-1.005-2.432-2.057-3.578-3.156l-13.888-11.082c-5.821-4.7-13.116-6.804-20.575-6.032-7.482 0.818-14.192 4.443-18.868 10.241-9.726 12.041-7.809 29.716 4.302 39.512l272.612 223.49c23.45-11.597 41.991-37.993 41.991-37.993 50.688-132.261 106.122-57.024 106.122-57.024-15.829 20.598-30.090 112.482-30.090 112.482-8.16 14.495-30.674 31.376-56.018 46.433l84.659 3.413 50.338 2.268-7.669 16.249 8.3-15.618 156.576 66.352 58.474-157.324-132.004-100.23-39.793-50.477z" />
<glyph unicode="&#xe907;" glyph-name="lamp" d="M635.457 304.89c16.083-9.427 26.065-27.184 26.065-45.49 0-13.307-4.999-26.065-13.857-35.492 8.879-9.427 13.857-22.185 13.857-35.492 0-18.306-9.427-34.942-24.962-44.919 4.451-7.753 7.227-17.203 7.227-26.065 0-36.063-28.287-53.249-60.454-53.249-14.431-32.167-46.593-53.249-81.536-53.249s-67.104 21.082-81.536 53.249c-32.184 0-60.454 17.186-60.454 53.249 0 8.879 2.777 18.306 7.227 26.065-15.529 9.981-24.962 26.613-24.962 44.919 0 13.307 4.999 26.065 13.857 35.492-8.879 9.427-13.857 22.185-13.857 35.492 0 18.306 9.981 36.063 26.065 45.49zM608.291 596.641c-9.427 0-17.757 8.324-17.757 17.757 0 38.269-59.351 53.249-88.741 53.249-9.427 0-17.757 8.324-17.757 17.757s8.324 17.718 17.757 17.718c51.575 0 124.233-27.184 124.233-88.741 0-9.427-8.308-17.735-17.735-17.735zM387.954 233.194l1.651 22.061c0.062 0.916 6.407 92.943-34.248 147.131-11.39 15.184-24.736 29.531-38.879 44.699-40.491 43.494-86.372 92.779-86.372 170.458 0 112.289 101.618 228.441 271.686 228.441 168.558 0 269.3-116.15 269.3-228.441 0-77.165-46.429-126.19-87.393-169.437-14.715-15.529-28.615-30.204-40.248-45.739-40.531-54.043-32.755-145.903-32.697-146.825l2.019-22.349-111.088 0.509-113.743-0.509zM501.797 805.164c-142.601 0-230.867-97.394-230.867-187.622 0-61.636 36.634-100.984 75.435-142.641 14.245-15.309 28.96-31.103 41.656-48.024 36.657-48.878 42.47-117.741 42.838-152.662l70.859 0.305 67.557-0.328c-0.102 35.085 4.92 103.824 41.554 152.662 13.041 17.39 28.412 33.614 43.268 49.307 39.185 41.39 76.209 80.473 76.209 141.374-0.023 77.923-70.901 187.622-228.503 187.622z" />
<glyph unicode="&#xe908;" glyph-name="retail-mode" d="M895.505 726.718l-3.849 0.927c-4.135 1.819-7.928 2.925-13.84 2.925-13.296 0-21.021-5.143-30.443-14.506l-103.357-107.046v18.763c0 71.905-68.877 132.931-140.72 132.931h-354.394c-71.843 0-130.308-61.031-130.308-132.914v-354.371c0-71.866 58.466-138.137 130.308-138.137h354.371c71.866 0 140.738 66.274 140.738 138.137v26.934l102.772-106.988c9.3-9.219 19.568-14.481 32.702-14.481 6.353 0 8.149 1.35 11.761 2.925l4.864 0.909c17.269 7.204 29.476 23.586 29.476 46.182v451.636c0 22.596-12.873 38.996-30.080 46.182zM744.011 379.244v150.947l121.048 125.449v-401.822l-121.048 125.426zM603.291 195.816h-354.394c-41.782 0-69.786 35.811-69.786 77.612v354.371c0 41.782 28.005 72.387 69.786 72.387h354.371c41.807 0 80.216-30.605 80.216-72.387v-90.785c0-0.927 0-1.876 0-2.826v-158.956c0-0.95 0-1.876 0-2.826v-98.979c0-41.807-38.412-77.612-80.193-77.612zM239.64 579.136h60.527v-302.623h-60.527v302.623z" />
<glyph unicode="&#xe909;" glyph-name="medicine" d="M834.582 724.639c0-22.084-17.911-39.996-47.461-39.996h-565.193c-14.613 0-32.522 17.911-32.522 39.996v96.876c0 22.084 17.911 39.996 39.991 39.996h565.195c22.081 0 39.991-17.911 39.991-39.996v-96.876zM818.394 29.511h-557.83c-61.82 0-143.39 80.484-143.39 142.315v385.762c0 64.742 52.728 113.119 128.256 113.119 15.814 0 29.431 6.474 29.431 13.954h38.506c0-19.932-9.23-32.212-16.978-39.311-17.862-16.391-44.925-14.557-50.913-14.403-40.061 1.039-88.447-31.545-88.447-73.346v-385.762c0-40.846 62.698-104.956 103.539-104.956h557.829c38.101 0 51.070 63.717 51.070 104.956v385.762c0 35.936-25.707 74.75-70.315 74.75h0.259c-28.514 0-83.189 9.958-83.189 52.311h45.983c0-7.469 15.933-16.458 38.096-16.458 59.685 0 109.018-45.229 109.018-110.601v-385.762c0.003-68.496-29.373-142.318-90.922-142.318zM203.112 151.106c-10.634 0-18.687 8.618-18.687 19.257v306.899c0 69.456 44.407 123.874 98.828 123.874 10.634 0 20.149-8.615 20.149-19.257s-10.53-19.257-21.157-19.257c-32.278 0-60.45-38.298-60.45-85.358v-306.895c0-10.634-8.048-19.261-18.687-19.261zM882.695 338.399h-577.597c-10.634 0-19.257 8.048-19.257 18.687s8.618 18.687 19.257 18.687h577.601c10.634 0 19.257-8.048 19.257-18.687s-8.618-18.687-19.261-18.687z" />
<glyph unicode="&#xe90a;" glyph-name="cleaner" d="M389.501 312.464c-25.104 0.482-51.252 0.718-75.678 0.821v643.118c0 13.336-9.742 24.15-23.078 24.15-13.334 0-23.078-10.814-23.078-24.15v-643.123c-27.149-0.117-51.622-0.346-77.075-0.793-43.295-0.746-81.81-27.825-89.042-70.508-7.229-42.678-5.498-87.175-7.527-130.618 132.319 0 259.118 0 389.084 0 0 38.005 2.246 78.591-0.798 116.714-3.781 47.362-44.704 83.446-92.807 84.379zM148.222-102.898c10.856 0.491 16.293 0.887 24.435 1.296 0 62.3 0 122.928 0 184.884-8.142-0.409-19.007-0.742-24.435-1.086 0-62.216 0-122.878 0-185.094zM197.083-100.386c8.142 0 19.007 0 21.721 0 0 59.727 0 119.453 0 184.608-2.714 0-13.57 0-21.721 0 0-65.155 0-124.881 0-184.608zM357.256-100.386c2.714 0 8.142 0 19.007 0 0 59.727 0 121.563 0 183.567-10.856-0.456-16.293-0.809-19.007-1.172 0-62.183 0-128.096 0-182.394zM96.637-100.386c8.142 0 13.57 0 24.435 0 0 59.727 0 119.453 0 184.608-10.856 0-16.293 0-24.435 0 0-65.155 0-130.309 0-184.608zM251.382-100.386c8.142 0 16.293 0 24.435 0 0 59.727 0 119.453 0 184.608-8.142 0-16.293 0-24.435 0 0-65.155 0-130.309 0-184.608zM403.412-103.093c10.856 0.679 21.721 1.198 24.435 1.682 0 62.511 0 120.475 0 185.63-8.142 0-13.57 0-24.435 0 0-65.152 0-125.23 0-187.312zM305.68-102.662c8.142 0.395 13.57 0.697 21.721 1.025 0 62.321 0 122.876 0 184.837-8.142-0.417-13.57-0.756-21.721-1.125 0-62.167 0-122.666 0-184.746zM457.702-100.386c8.142 0 13.57 0 21.721 0 0 59.727 0 119.453 0 184.608-8.142 0-13.57 0-21.721 0 0-65.155 0-130.309 0-184.608zM558.51 638.445c24.026 0 43.562 19.545 43.562 43.562s-19.545 43.562-43.562 43.562-43.562-19.545-43.562-43.562 19.545-43.562 43.562-43.562zM558.51 701.431c10.706 0 19.421-8.715 19.421-19.421s-8.715-19.421-19.421-19.421-19.421 8.715-19.421 19.421 8.715 19.421 19.421 19.421zM630.938 532.808c18.366 0 33.312 14.943 33.312 33.312 0 18.364-14.943 33.312-33.312 33.312-18.366 0-33.312-14.948-33.312-33.312 0-18.369 14.946-33.312 33.312-33.312zM630.938 580.115c7.718 0 13.996-6.282 13.996-13.998 0-7.718-6.28-13.998-13.996-13.998s-13.998 6.28-13.998 13.998c-0.002 7.718 6.28 13.998 13.998 13.998zM524.709 484.52c18.366 0 33.312 14.943 33.312 33.312 0 18.364-14.946 33.312-33.312 33.312s-33.314-14.948-33.314-33.312c0-18.369 14.948-33.312 33.314-33.312zM524.709 531.827c7.718 0 13.998-6.282 13.998-13.998 0-7.718-6.282-13.998-13.998-13.998s-13.998 6.28-13.998 13.998c-0.002 7.716 6.282 13.998 13.998 13.998zM918.149 480.577h-62.597c-0.417 46.147-36.555 80.231-80.947 80.231s-80.533-34.075-80.95-80.231h-277.691c-13.336 0-24.15-9.745-24.15-23.078 0-13.336 10.814-23.078 24.15-23.078h19.648c-0.199 0-0.337-2.036-0.337-3.346l5.358-82.58c43.756-9.202 74.087-47.773 74.087-94.269v-354.611h304.206c14.548 0 26.803 11.191 26.803 25.191l48.288 506.345c0 1.31-0.14 3.271-0.346 3.271h24.496c13.334 0 24.15 9.742 24.15 23.078 0 13.334-10.814 23.078-24.15 23.078zM774.595 536.659c31.087 0 56.395-23.504 56.809-56.081h-113.62c0.417 32.577 25.724 56.081 56.811 56.081zM667.046 248.086c-104.238 0-189.048 85.889-189.048 189.048h42.687c0-78.725 65.655-146.361 146.361-146.361 80.711 0 146.364 67.637 146.364 146.361h42.689c0-103.16-84.81-189.048-189.053-189.048z" />
<glyph unicode="&#xe90b;" glyph-name="managementresults" d="M595.809 413.538c-20.994 0-37.44 12.994-37.44 29.566v92.663c0 16.591 16.446 29.556 37.44 29.556s37.44-12.965 37.44-29.556v-92.663c-0.010-16.581-16.465-29.566-37.44-29.566zM595.809 541.894c-9.203 0-14.021-4.557-14.021-6.129v-92.663c0-1.59 4.81-6.147 14.021-6.147 9.192 0 14.021 4.557 14.021 6.147v92.663c-0.010 1.572-4.828 6.129-14.021 6.129zM691.524 413.538c-20.994 0-37.43 12.994-37.43 29.566v206.233c0 16.591 16.436 29.585 37.43 29.585s37.44-12.994 37.44-29.585v-206.251c-0.010-16.563-16.446-29.556-37.44-29.556zM691.524 655.502c-9.182 0-14.003-4.568-14.003-6.147v-206.251c0-1.59 4.81-6.147 14.003-6.147 9.203 0 14.021 4.557 14.021 6.147v206.233c-0.010 1.59-4.828 6.157-14.021 6.157zM787.244 413.538c-20.994 0-37.44 12.994-37.44 29.566v149.894c0 16.591 16.446 29.566 37.44 29.566s37.44-12.983 37.44-29.566v-149.894c-0.010-16.581-16.446-29.566-37.44-29.566zM787.244 599.164c-9.192 0-14.021-4.568-14.021-6.147v-149.894c0-1.59 4.828-6.147 14.021-6.147 9.203 0 14.003 4.557 14.003 6.147v149.894c0 1.572-4.8 6.147-14.003 6.147zM882.971 413.538c-20.994 0-37.44 12.994-37.44 29.566v250.305c0 16.581 16.446 29.566 37.44 29.566s37.44-12.983 37.44-29.566v-250.305c-0.010-16.581-16.465-29.566-37.44-29.566zM882.971 699.546c-9.203 0-14.021-4.557-14.021-6.129v-250.305c0-1.59 4.81-6.147 14.021-6.147 9.192 0 14.021 4.557 14.021 6.147v250.305c-0.010 1.572-4.839 6.129-14.021 6.129zM1005.141 389.848l-39.36 39.36c-3.646 3.646-10.046 3.665-13.711 0-1.832-1.832-2.841-4.266-2.841-6.865s1.009-4.413 2.841-6.245l19.907-19.306h-442.021v370.914l24.707-23.089c1.969-1.987 5.391-3.074 8.194-3.074 2.792 0 5.827 1.086 7.796 3.074s3.267 4.596 3.267 7.388c0 2.792-0.988 5.43-2.968 7.409l-43.035 43.112c-3.946 3.946-10.803 3.956-14.769 0l-43.084-43.112c-1.969-1.969-3.055-4.596-3.055-7.399 0-2.792 1.086-5.412 3.055-7.388 3.966-3.966 9.066-3.966 13.004 0l21.303 23.079v-370.914h-34.191c-6.952 0-12.596-5.837-12.596-12.8s5.644-12.8 12.596-12.8h34.191v-38.604c0-6.952 5.837-12.596 12.8-12.596s12.8 5.644 12.8 12.596v38.604h442.021l-19.907-20.315c-1.843-1.832-2.841-4.48-2.841-7.068 0-2.599 1.009-5.12 2.841-6.934 1.832-1.832 4.266-2.908 6.865-2.908 2.588 0 5.032 0.999 6.865 2.831l39.36 39.35c1.843 1.832 2.841 4.266 2.841 6.846-0.010 2.588-1.009 5.014-2.852 6.846zM280.895 677.611c60.945 0 110.545-49.561 110.545-110.534 0-60.945-49.6-110.506-110.545-110.506s-110.534 49.561-110.534 110.506c0 60.955 49.59 110.534 110.534 110.534v0zM280.895 412.617c85.177 0 154.48 69.265 154.48 154.442s-69.303 154.48-154.48 154.48-154.48-69.303-154.48-154.48c0-85.177 69.303-154.442 154.48-154.442v0zM52.251 166.647c12.132 0 21.982 9.832 21.982 21.982 0 88.465 92.712 160.444 206.669 160.444 113.967 0 206.679-71.98 206.679-160.444 0-12.15 9.843-21.982 21.964-21.982 12.132 0 21.982 9.832 21.982 21.982 0 112.697-112.426 204.39-250.625 204.39-138.189 0-250.615-91.693-250.615-204.39 0-12.16 9.843-21.982 21.964-21.982v0z" />
<glyph unicode="&#xe90c;" glyph-name="hiddenbuyer" d="M537.817 350.149c-160.716 0-291.482-106.643-291.482-237.708 0-14.138 11.45-25.558 25.548-25.558 14.108 0 25.548 11.42 25.548 25.558 0 102.889 107.847 186.602 240.386 186.602s240.386-83.713 240.386-186.602c0-14.138 11.44-25.558 25.548-25.558s25.548 11.42 25.548 25.558c0 131.076-130.757 237.708-291.482 237.708zM365.025 600.92c-4.311-15.413-6.88-31.552-6.88-48.318 0-99.076 80.607-179.643 179.672-179.643s179.672 80.567 179.672 179.643c0 18.758-3.107 36.779-8.483 53.794l62.038 13.182-75.181 33.782-155.737-40.583-161.791 40.931-71.487-34.141c1.484-4.47 25.936-11.37 58.185-18.639zM415.155 590.416c12.654-2.479 25.369-4.908 37.555-7.178-1.056-2.957-1.792-6.033-1.792-9.269 0-18.28 18.011-33.085 40.214-33.085 20.331 0 36.948 12.435 39.667 28.515 1.494-0.249 2.339-0.388 2.339-0.388l20.072 4.271c0.468-17.961 18.211-32.398 40.134-32.398 22.213 0 40.224 14.795 40.224 33.085 0 5.586-1.842 10.753-4.819 15.363l30.078 6.392c4.839-13.501 7.547-27.987 7.547-43.131 0-70.889-57.677-128.537-128.566-128.537s-128.566 57.638-128.566 128.537c0 13.192 2.191 25.827 5.904 37.824zM685.231 668.175l-61.252 107.668-79.511-32.169-91.639 39.636-64.507-114.558 151.745-38.392z" />
<glyph unicode="&#xe90d;" glyph-name="mixe" d="M656.589 339.456l-55.159-55.137 171.372-174.763-77.46-82.534h214.881v218.544l-79.053-76.891zM156.862 839.195l260.022-260.022-55.158-55.158-260.022 260.022 55.158 55.158zM692.429 811.679l76.8-73.933-666.578-665.623 54.682-55.137 670.879 667.329 82.011-73.705v201z" />
<glyph unicode="&#xe90e;" glyph-name="managementpeople" d="M515.473 696.328c59.461 0 107.855-48.37 107.855-107.855 0-59.461-48.394-107.821-107.855-107.821s-107.855 48.36-107.855 107.821c-0.010 59.471 48.383 107.855 107.855 107.855v0zM515.473 437.765c83.113 0 150.732 67.598 150.732 150.711s-67.618 150.732-150.732 150.732-150.732-67.618-150.732-150.732 67.618-150.711 150.732-150.711v0zM292.369 197.76c11.833 0 21.44 9.584 21.44 21.44 0 86.317 90.474 156.552 201.665 156.552s201.665-70.225 201.665-156.552c0-11.853 9.597-21.44 21.44-21.44s21.44 9.584 21.44 21.44c0 109.956-109.699 199.429-244.531 199.429s-244.531-89.463-244.531-199.429c-0.023-11.843 9.584-21.44 21.416-21.44v0zM841.948 676.092c42.742 0 77.519-34.764 77.519-77.519 0-42.742-34.787-77.495-77.519-77.495-42.742 0-77.519 34.764-77.519 77.495 0 42.752 34.777 77.519 77.519 77.519v0zM841.948 490.26c59.731 0 108.337 48.586 108.337 108.317s-48.606 108.327-108.337 108.327-108.327-48.596-108.327-108.327c0-59.731 48.596-108.317 108.327-108.317v0zM681.609 317.761c8.505 0 15.404 6.899 15.404 15.417 0 62.034 65.022 112.518 144.935 112.518s144.935-50.484 144.935-112.518c0-8.518 6.899-15.417 15.404-15.417s15.417 6.899 15.417 15.417c0 79.036-78.854 143.326-175.756 143.326s-175.756-64.304-175.756-143.326c0.010-8.518 6.91-15.417 15.417-15.417v0zM188.972 676.092c42.742 0 77.519-34.764 77.519-77.519 0-42.742-34.787-77.495-77.519-77.495-42.742 0-77.519 34.764-77.519 77.495 0.010 42.752 34.777 77.519 77.519 77.519v0zM188.972 490.26c59.731 0 108.337 48.586 108.337 108.317s-48.596 108.327-108.337 108.327-108.337-48.596-108.337-108.327c0.010-59.731 48.606-108.317 108.337-108.317v0zM28.633 317.761c8.505 0 15.404 6.899 15.404 15.417 0 62.034 65.012 112.518 144.935 112.518 79.91 0 144.935-50.484 144.935-112.518 0-8.518 6.899-15.417 15.404-15.417s15.417 6.899 15.417 15.417c0 79.036-78.854 143.326-175.756 143.326s-175.743-64.304-175.743-143.326c0-8.518 6.899-15.417 15.404-15.417v0z" />
<glyph unicode="&#xe90f;" glyph-name="adm" d="M295.641 681.944c62.466 0 113.306-50.81 113.306-113.296s-50.84-113.267-113.306-113.267-113.296 50.8-113.296 113.267c0 62.496 50.83 113.296 113.296 113.296v0zM295.641 410.331c87.312 0 158.357 70.996 158.357 158.308s-71.035 158.338-158.357 158.338-158.338-71.035-158.338-158.338c0-87.312 71.025-158.308 158.338-158.308v0zM61.282 158.21c12.418 0 22.53 10.063 22.53 22.53 0 90.676 95.030 164.453 211.839 164.453 116.819 0 211.858-73.776 211.858-164.453 0-12.467 10.073-22.53 22.511-22.53s22.53 10.063 22.53 22.53c0 115.503-115.235 209.494-256.9 209.494-141.635 0-256.88-93.981-256.88-209.494-0.010-12.448 10.063-22.53 22.511-22.53v0zM896.239 330.766h-323.918c-43.34 0-78.624 35.276-78.624 78.634v194.196c0 43.31 35.276 78.605 78.624 78.605h323.918c43.34 0 78.634-35.295 78.634-78.605v-194.196c0-43.359-35.295-78.634-78.634-78.634zM572.321 647.886c-24.45 0-44.319-19.869-44.319-44.289v-194.196c0-24.45 19.869-44.319 44.319-44.319h323.918c24.45 0 44.329 19.879 44.329 44.319v194.196c0 24.42-19.879 44.289-44.329 44.289h-323.918zM888.956 484.927c-7.104 0-12.893-5.769-12.893-12.893v-44.695c0-4.235-3.424-7.678-7.668-7.678h-51.305c-7.075 0-12.873-5.769-12.873-12.863 0-7.115 5.799-12.844 12.873-12.844h51.305c18.425 0 33.415 14.961 33.415 33.385v44.695c0 7.115-5.788 12.893-12.863 12.893v0zM627.742 273.019c-6.125 0-12.022 3.374-15.001 9.212-4.185 8.272-0.88 18.355 7.402 22.57l104.094 52.651c4.759 2.424 10.39 2.424 15.168 0l104.113-52.651c8.282-4.206 11.587-14.288 7.391-22.57-4.185-8.282-14.278-11.587-22.551-7.402l-96.544 48.841-96.525-48.841c-2.414-1.217-4.987-1.811-7.54-1.811z" />
<glyph unicode="&#xe910;" glyph-name="icon-door" d="M432.359 584.776h-324.874c-43.469 0-78.844 35.346-78.844 78.83v194.741c0 43.469 35.381 78.844 78.844 78.844h324.878c43.456 0 78.849-35.381 78.849-78.844v-194.741c-0.005-43.484-35.398-78.83-78.853-78.83zM107.49 902.795c-24.486 0-44.422-19.948-44.422-44.449v-194.741c0-24.504 19.943-44.467 44.422-44.467h324.878c24.491 0 44.44 19.963 44.44 44.467v194.741c0 24.506-19.949 44.449-44.44 44.449h-324.878zM425.052 739.343c-7.12 0-12.922-5.767-12.922-12.922v-44.821c0-4.256-3.461-7.706-7.7-7.706h-51.46c-7.090 0-12.887-5.781-12.887-12.907 0-7.137 5.799-12.887 12.887-12.887h51.46c18.495 0 33.524 15.016 33.524 33.495v44.821c0.005 7.149-5.812 12.922-12.902 12.922v0zM163.066 522.302c-6.12 0-12.051 3.379-15.038 9.24-4.195 8.307-0.871 18.428 7.433 22.637l104.394 52.809c4.773 2.432 10.431 2.432 15.213 0l104.407-52.809c8.331-4.207 11.637-14.333 7.428-22.637-4.189-8.307-14.301-11.614-22.618-7.413l-96.824 48.983-96.802-48.983c-2.432-1.243-5.046-1.827-7.592-1.827zM898.552 688.141v101.253c0 26.971-18.446 47.801-45.871 47.801h-377.041v-39.239h377.041c8.232 0 6.632-2.707 6.632-8.563v-96.075h-383.673v-29.716c0-14.116-6.061-26.698-16.354-34.853l-46.136-197.024h-115.762l87.8 187.476h-40.608l-87.8-187.476h-48.884c-6.063 0-11.004 3.884-12.333 9.387l77.157 178.088h-41.658l-73.695-171.226v-3.811c0-27.161 23.252-47.322 50.53-47.322h45.387v-353.352c0-27.276 27.951-52.117 55.505-52.117h543.89c26.115 0 45.871 22.896 45.871 52.117v353.352h55.247c27.279 0 49.391 20.156 49.391 47.322v3.811l-104.638 240.166zM593.359 658.446h63.637l53.759-226.716h-117.396v226.716zM504.704 658.446h53.769v-226.716h-107.533l53.762 226.716zM645.678 26.255h-139.518v237.999c0 0.193 3.046 1.798 4.245 1.798h135.272v-239.795zM859.313 43.498c0-7.408-0.772-17.238-6.632-17.238h-167.765v241.93c0 20.165-13.21 32.743-33.609 32.743h-140.899c-22.746 0-39.125-13.82-39.125-32.743v-241.93h-162.489c-7.12 0-16.267 10.361-16.267 17.238v353.352h566.789v-353.352zM748.549 431.73l-53.762 226.716h63.305l106.211-226.716h-115.756zM953.796 431.73h-48.884l-106.211 226.716h73.238l94.199-217.358c-1.332-5.507-6.275-9.358-12.338-9.358z" />
<glyph unicode="&#xe911;" glyph-name="pdv" d="M829.565 706.759v101.583c0 27.056-16.754 49.271-44.25 49.271h-545.715c-28.788 0-53.085-22.642-53.085-49.271v-108.892l-100.614-233.68v-3.821c0-27.257 25.088-46.158 52.458-46.158h43.77v-355.844c0-27.367 29.805-50.976 57.449-50.976h545.691c26.202 0 44.25 21.653 44.25 50.976v355.844h57.185c27.37 0 47.793 18.921 47.793 46.158v3.821l-104.975 240.966zM239.599 818.249h545.691c8.265 0 4.886-4.027 4.886-9.907v-95.093h-564.298v95.093c0.003 8.173 9.87 9.907 13.699 9.907zM680.832 450.815l-53.941 227.478h63.527l106.562-227.478h-116.148zM398.242 678.271l-53.939-227.478h-116.151l106.562 227.478h63.527zM436.168 678.271h52.191v-227.478h-106.133l53.941 227.478zM523.359 678.271h65.609l53.939-227.478h-119.548v227.478zM126.014 460.203l94.51 218.090h73.473l-106.562-227.478h-49.053c-6.091 0-11.040 3.866-12.368 9.388zM575.859 43.973h-139.978v237.474c0 0.201 4.821 3.118 6.009 3.118h133.969v-240.592zM790.201 59.974c0-7.429 0.997-15.976-4.886-15.976h-170.092v241.43c0 20.222-11.502 34.162-31.972 34.162h-141.362c-22.816 0-41.009-15.173-41.009-34.162v-241.43h-161.257c-7.15 0-18.085 9.079-18.085 15.976v355.844h568.684v-355.844zM886.772 450.815h-49.053l-106.562 227.478h73.473l94.513-218.090c-1.333-5.521-6.302-9.388-12.371-9.388z" />
<glyph unicode="&#xe986;" glyph-name="search" d="M784.34 244.198l-137.545 116.984c-14.215 12.797-29.426 18.671-41.709 18.106 32.469 38.032 52.082 87.374 52.082 141.297 0 120.263-97.491 217.757-217.757 217.757-120.263 0-217.757-97.491-217.757-217.757s97.491-217.757 217.757-217.757c53.929 0 103.264 19.613 141.297 52.086-0.566-12.28 5.307-27.495 18.106-41.709l116.984-137.545c20.028-22.256 52.751-24.13 72.71-4.171s18.084 52.682-4.169 72.71zM439.412 375.412c-80.176 0-145.166 64.996-145.166 145.166s64.996 145.166 145.166 145.166 145.166-64.996 145.166-145.166-64.996-145.166-145.166-145.166z" />
</font>
</defs>
</svg>
